<svg viewBox="0 0 603 302" fill="none" xmlns="http://www.w3.org/2000/svg">
<path d="M11.374 285.258V286H6.7207V285.351L9.0498 282.758C9.33626 282.439 9.55762 282.169 9.71387 281.947C9.87337 281.723 9.98405 281.522 10.0459 281.347C10.111 281.168 10.1436 280.985 10.1436 280.8C10.1436 280.565 10.0947 280.354 9.99707 280.165C9.90267 279.973 9.7627 279.82 9.57715 279.706C9.3916 279.592 9.16699 279.535 8.90332 279.535C8.58757 279.535 8.32389 279.597 8.1123 279.721C7.90397 279.841 7.74772 280.01 7.64355 280.229C7.53939 280.447 7.4873 280.697 7.4873 280.98H6.58398C6.58398 280.58 6.67188 280.214 6.84766 279.882C7.02344 279.55 7.28385 279.286 7.62891 279.091C7.97396 278.892 8.39876 278.793 8.90332 278.793C9.35254 278.793 9.73665 278.873 10.0557 279.032C10.3747 279.188 10.6188 279.41 10.7881 279.696C10.9606 279.979 11.0469 280.312 11.0469 280.692C11.0469 280.901 11.0111 281.112 10.9395 281.327C10.8711 281.539 10.7751 281.75 10.6514 281.962C10.5309 282.174 10.3893 282.382 10.2266 282.587C10.0671 282.792 9.89616 282.994 9.71387 283.192L7.80957 285.258H11.374ZM16.8037 281.879V282.963C16.8037 283.546 16.7516 284.037 16.6475 284.438C16.5433 284.838 16.3936 285.16 16.1982 285.404C16.0029 285.648 15.7669 285.826 15.4902 285.937C15.2168 286.044 14.9076 286.098 14.5625 286.098C14.2891 286.098 14.0368 286.063 13.8057 285.995C13.5745 285.927 13.3662 285.818 13.1807 285.668C12.9984 285.515 12.8421 285.316 12.7119 285.072C12.5817 284.828 12.4824 284.532 12.4141 284.184C12.3457 283.835 12.3115 283.428 12.3115 282.963V281.879C12.3115 281.296 12.3636 280.808 12.4678 280.414C12.5752 280.02 12.7266 279.704 12.9219 279.467C13.1172 279.226 13.3516 279.053 13.625 278.949C13.9017 278.845 14.2109 278.793 14.5527 278.793C14.8294 278.793 15.0833 278.827 15.3145 278.896C15.5488 278.961 15.7572 279.066 15.9395 279.213C16.1217 279.356 16.2764 279.548 16.4033 279.789C16.5335 280.027 16.6328 280.318 16.7012 280.663C16.7695 281.008 16.8037 281.413 16.8037 281.879ZM15.8955 283.109V281.728C15.8955 281.409 15.876 281.129 15.8369 280.888C15.8011 280.644 15.7474 280.435 15.6758 280.263C15.6042 280.09 15.513 279.95 15.4023 279.843C15.2949 279.735 15.1696 279.657 15.0264 279.608C14.8864 279.556 14.7285 279.53 14.5527 279.53C14.3379 279.53 14.1475 279.571 13.9814 279.652C13.8154 279.73 13.6755 279.856 13.5615 280.028C13.4508 280.201 13.3662 280.427 13.3076 280.707C13.249 280.987 13.2197 281.327 13.2197 281.728V283.109C13.2197 283.428 13.2376 283.71 13.2734 283.954C13.3125 284.198 13.3695 284.41 13.4443 284.589C13.5192 284.765 13.6104 284.91 13.7178 285.023C13.8252 285.137 13.9489 285.222 14.0889 285.277C14.2321 285.329 14.39 285.355 14.5625 285.355C14.7839 285.355 14.9775 285.313 15.1436 285.229C15.3096 285.144 15.4479 285.012 15.5586 284.833C15.6725 284.651 15.7572 284.418 15.8125 284.135C15.8678 283.848 15.8955 283.507 15.8955 283.109ZM22.4287 281.879V282.963C22.4287 283.546 22.3766 284.037 22.2725 284.438C22.1683 284.838 22.0186 285.16 21.8232 285.404C21.6279 285.648 21.3919 285.826 21.1152 285.937C20.8418 286.044 20.5326 286.098 20.1875 286.098C19.9141 286.098 19.6618 286.063 19.4307 285.995C19.1995 285.927 18.9912 285.818 18.8057 285.668C18.6234 285.515 18.4671 285.316 18.3369 285.072C18.2067 284.828 18.1074 284.532 18.0391 284.184C17.9707 283.835 17.9365 283.428 17.9365 282.963V281.879C17.9365 281.296 17.9886 280.808 18.0928 280.414C18.2002 280.02 18.3516 279.704 18.5469 279.467C18.7422 279.226 18.9766 279.053 19.25 278.949C19.5267 278.845 19.8359 278.793 20.1777 278.793C20.4544 278.793 20.7083 278.827 20.9395 278.896C21.1738 278.961 21.3822 279.066 21.5645 279.213C21.7467 279.356 21.9014 279.548 22.0283 279.789C22.1585 280.027 22.2578 280.318 22.3262 280.663C22.3945 281.008 22.4287 281.413 22.4287 281.879ZM21.5205 283.109V281.728C21.5205 281.409 21.501 281.129 21.4619 280.888C21.4261 280.644 21.3724 280.435 21.3008 280.263C21.2292 280.09 21.138 279.95 21.0273 279.843C20.9199 279.735 20.7946 279.657 20.6514 279.608C20.5114 279.556 20.3535 279.53 20.1777 279.53C19.9629 279.53 19.7725 279.571 19.6064 279.652C19.4404 279.73 19.3005 279.856 19.1865 280.028C19.0758 280.201 18.9912 280.427 18.9326 280.707C18.874 280.987 18.8447 281.327 18.8447 281.728V283.109C18.8447 283.428 18.8626 283.71 18.8984 283.954C18.9375 284.198 18.9945 284.41 19.0693 284.589C19.1442 284.765 19.2354 284.91 19.3428 285.023C19.4502 285.137 19.5739 285.222 19.7139 285.277C19.8571 285.329 20.015 285.355 20.1875 285.355C20.4089 285.355 20.6025 285.313 20.7686 285.229C20.9346 285.144 21.0729 285.012 21.1836 284.833C21.2975 284.651 21.3822 284.418 21.4375 284.135C21.4928 283.848 21.5205 283.507 21.5205 283.109Z" fill="#A3A3A3"/>
<path d="M11.5205 214.607V215.35H6.38379V214.817L9.56738 209.891H10.3047L9.51367 211.316L7.40918 214.607H11.5205ZM10.5293 209.891V217H9.62598V209.891H10.5293ZM16.8037 212.879V213.963C16.8037 214.546 16.7516 215.037 16.6475 215.438C16.5433 215.838 16.3936 216.16 16.1982 216.404C16.0029 216.648 15.7669 216.826 15.4902 216.937C15.2168 217.044 14.9076 217.098 14.5625 217.098C14.2891 217.098 14.0368 217.063 13.8057 216.995C13.5745 216.927 13.3662 216.818 13.1807 216.668C12.9984 216.515 12.8421 216.316 12.7119 216.072C12.5817 215.828 12.4824 215.532 12.4141 215.184C12.3457 214.835 12.3115 214.428 12.3115 213.963V212.879C12.3115 212.296 12.3636 211.808 12.4678 211.414C12.5752 211.02 12.7266 210.704 12.9219 210.467C13.1172 210.226 13.3516 210.053 13.625 209.949C13.9017 209.845 14.2109 209.793 14.5527 209.793C14.8294 209.793 15.0833 209.827 15.3145 209.896C15.5488 209.961 15.7572 210.066 15.9395 210.213C16.1217 210.356 16.2764 210.548 16.4033 210.789C16.5335 211.027 16.6328 211.318 16.7012 211.663C16.7695 212.008 16.8037 212.413 16.8037 212.879ZM15.8955 214.109V212.728C15.8955 212.409 15.876 212.129 15.8369 211.888C15.8011 211.644 15.7474 211.435 15.6758 211.263C15.6042 211.09 15.513 210.95 15.4023 210.843C15.2949 210.735 15.1696 210.657 15.0264 210.608C14.8864 210.556 14.7285 210.53 14.5527 210.53C14.3379 210.53 14.1475 210.571 13.9814 210.652C13.8154 210.73 13.6755 210.856 13.5615 211.028C13.4508 211.201 13.3662 211.427 13.3076 211.707C13.249 211.987 13.2197 212.327 13.2197 212.728V214.109C13.2197 214.428 13.2376 214.71 13.2734 214.954C13.3125 215.198 13.3695 215.41 13.4443 215.589C13.5192 215.765 13.6104 215.91 13.7178 216.023C13.8252 216.137 13.9489 216.222 14.0889 216.277C14.2321 216.329 14.39 216.355 14.5625 216.355C14.7839 216.355 14.9775 216.313 15.1436 216.229C15.3096 216.144 15.4479 216.012 15.5586 215.833C15.6725 215.651 15.7572 215.418 15.8125 215.135C15.8678 214.848 15.8955 214.507 15.8955 214.109ZM22.4287 212.879V213.963C22.4287 214.546 22.3766 215.037 22.2725 215.438C22.1683 215.838 22.0186 216.16 21.8232 216.404C21.6279 216.648 21.3919 216.826 21.1152 216.937C20.8418 217.044 20.5326 217.098 20.1875 217.098C19.9141 217.098 19.6618 217.063 19.4307 216.995C19.1995 216.927 18.9912 216.818 18.8057 216.668C18.6234 216.515 18.4671 216.316 18.3369 216.072C18.2067 215.828 18.1074 215.532 18.0391 215.184C17.9707 214.835 17.9365 214.428 17.9365 213.963V212.879C17.9365 212.296 17.9886 211.808 18.0928 211.414C18.2002 211.02 18.3516 210.704 18.5469 210.467C18.7422 210.226 18.9766 210.053 19.25 209.949C19.5267 209.845 19.8359 209.793 20.1777 209.793C20.4544 209.793 20.7083 209.827 20.9395 209.896C21.1738 209.961 21.3822 210.066 21.5645 210.213C21.7467 210.356 21.9014 210.548 22.0283 210.789C22.1585 211.027 22.2578 211.318 22.3262 211.663C22.3945 212.008 22.4287 212.413 22.4287 212.879ZM21.5205 214.109V212.728C21.5205 212.409 21.501 212.129 21.4619 211.888C21.4261 211.644 21.3724 211.435 21.3008 211.263C21.2292 211.09 21.138 210.95 21.0273 210.843C20.9199 210.735 20.7946 210.657 20.6514 210.608C20.5114 210.556 20.3535 210.53 20.1777 210.53C19.9629 210.53 19.7725 210.571 19.6064 210.652C19.4404 210.73 19.3005 210.856 19.1865 211.028C19.0758 211.201 18.9912 211.427 18.9326 211.707C18.874 211.987 18.8447 212.327 18.8447 212.728V214.109C18.8447 214.428 18.8626 214.71 18.8984 214.954C18.9375 215.198 18.9945 215.41 19.0693 215.589C19.1442 215.765 19.2354 215.91 19.3428 216.023C19.4502 216.137 19.5739 216.222 19.7139 216.277C19.8571 216.329 20.015 216.355 20.1875 216.355C20.4089 216.355 20.6025 216.313 20.7686 216.229C20.9346 216.144 21.0729 216.012 21.1836 215.833C21.2975 215.651 21.3822 215.418 21.4375 215.135C21.4928 214.848 21.5205 214.507 21.5205 214.109Z" fill="#A3A3A3"/>
<path d="M10.1826 140.881H10.2607V141.647H10.1826C9.7041 141.647 9.30371 141.726 8.98145 141.882C8.65918 142.035 8.40365 142.242 8.21484 142.502C8.02604 142.759 7.88932 143.049 7.80469 143.371C7.72331 143.693 7.68262 144.021 7.68262 144.353V145.397C7.68262 145.713 7.72005 145.993 7.79492 146.237C7.86979 146.478 7.97233 146.682 8.10254 146.848C8.23275 147.014 8.37923 147.139 8.54199 147.224C8.70801 147.308 8.88053 147.351 9.05957 147.351C9.2679 147.351 9.45345 147.312 9.61621 147.233C9.77897 147.152 9.91569 147.04 10.0264 146.896C10.1403 146.75 10.2266 146.577 10.2852 146.379C10.3438 146.18 10.373 145.962 10.373 145.725C10.373 145.513 10.347 145.31 10.2949 145.114C10.2428 144.916 10.1631 144.74 10.0557 144.587C9.94824 144.431 9.81315 144.309 9.65039 144.221C9.49089 144.13 9.30046 144.084 9.0791 144.084C8.82845 144.084 8.59408 144.146 8.37598 144.27C8.16113 144.39 7.98372 144.549 7.84375 144.748C7.70703 144.943 7.62891 145.157 7.60938 145.388L7.13086 145.383C7.17643 145.018 7.26107 144.707 7.38477 144.45C7.51172 144.19 7.66797 143.978 7.85352 143.815C8.04232 143.649 8.25228 143.529 8.4834 143.454C8.71777 143.376 8.96517 143.337 9.22559 143.337C9.5804 143.337 9.88639 143.404 10.1436 143.537C10.4007 143.671 10.6123 143.85 10.7783 144.074C10.9443 144.296 11.0664 144.546 11.1445 144.826C11.2259 145.103 11.2666 145.388 11.2666 145.681C11.2666 146.016 11.2194 146.33 11.125 146.623C11.0306 146.916 10.889 147.173 10.7002 147.395C10.5146 147.616 10.2852 147.788 10.0117 147.912C9.73828 148.036 9.4209 148.098 9.05957 148.098C8.67546 148.098 8.34017 148.02 8.05371 147.863C7.76725 147.704 7.52962 147.492 7.34082 147.229C7.15202 146.965 7.01042 146.672 6.91602 146.35C6.82161 146.027 6.77441 145.7 6.77441 145.368V144.943C6.77441 144.442 6.82487 143.951 6.92578 143.469C7.02669 142.987 7.20085 142.551 7.44824 142.16C7.69889 141.77 8.04557 141.459 8.48828 141.228C8.93099 140.996 9.49577 140.881 10.1826 140.881ZM16.8037 143.879V144.963C16.8037 145.546 16.7516 146.037 16.6475 146.438C16.5433 146.838 16.3936 147.16 16.1982 147.404C16.0029 147.648 15.7669 147.826 15.4902 147.937C15.2168 148.044 14.9076 148.098 14.5625 148.098C14.2891 148.098 14.0368 148.063 13.8057 147.995C13.5745 147.927 13.3662 147.818 13.1807 147.668C12.9984 147.515 12.8421 147.316 12.7119 147.072C12.5817 146.828 12.4824 146.532 12.4141 146.184C12.3457 145.835 12.3115 145.428 12.3115 144.963V143.879C12.3115 143.296 12.3636 142.808 12.4678 142.414C12.5752 142.02 12.7266 141.704 12.9219 141.467C13.1172 141.226 13.3516 141.053 13.625 140.949C13.9017 140.845 14.2109 140.793 14.5527 140.793C14.8294 140.793 15.0833 140.827 15.3145 140.896C15.5488 140.961 15.7572 141.066 15.9395 141.213C16.1217 141.356 16.2764 141.548 16.4033 141.789C16.5335 142.027 16.6328 142.318 16.7012 142.663C16.7695 143.008 16.8037 143.413 16.8037 143.879ZM15.8955 145.109V143.728C15.8955 143.409 15.876 143.129 15.8369 142.888C15.8011 142.644 15.7474 142.435 15.6758 142.263C15.6042 142.09 15.513 141.95 15.4023 141.843C15.2949 141.735 15.1696 141.657 15.0264 141.608C14.8864 141.556 14.7285 141.53 14.5527 141.53C14.3379 141.53 14.1475 141.571 13.9814 141.652C13.8154 141.73 13.6755 141.856 13.5615 142.028C13.4508 142.201 13.3662 142.427 13.3076 142.707C13.249 142.987 13.2197 143.327 13.2197 143.728V145.109C13.2197 145.428 13.2376 145.71 13.2734 145.954C13.3125 146.198 13.3695 146.41 13.4443 146.589C13.5192 146.765 13.6104 146.91 13.7178 147.023C13.8252 147.137 13.9489 147.222 14.0889 147.277C14.2321 147.329 14.39 147.355 14.5625 147.355C14.7839 147.355 14.9775 147.313 15.1436 147.229C15.3096 147.144 15.4479 147.012 15.5586 146.833C15.6725 146.651 15.7572 146.418 15.8125 146.135C15.8678 145.848 15.8955 145.507 15.8955 145.109ZM22.4287 143.879V144.963C22.4287 145.546 22.3766 146.037 22.2725 146.438C22.1683 146.838 22.0186 147.16 21.8232 147.404C21.6279 147.648 21.3919 147.826 21.1152 147.937C20.8418 148.044 20.5326 148.098 20.1875 148.098C19.9141 148.098 19.6618 148.063 19.4307 147.995C19.1995 147.927 18.9912 147.818 18.8057 147.668C18.6234 147.515 18.4671 147.316 18.3369 147.072C18.2067 146.828 18.1074 146.532 18.0391 146.184C17.9707 145.835 17.9365 145.428 17.9365 144.963V143.879C17.9365 143.296 17.9886 142.808 18.0928 142.414C18.2002 142.02 18.3516 141.704 18.5469 141.467C18.7422 141.226 18.9766 141.053 19.25 140.949C19.5267 140.845 19.8359 140.793 20.1777 140.793C20.4544 140.793 20.7083 140.827 20.9395 140.896C21.1738 140.961 21.3822 141.066 21.5645 141.213C21.7467 141.356 21.9014 141.548 22.0283 141.789C22.1585 142.027 22.2578 142.318 22.3262 142.663C22.3945 143.008 22.4287 143.413 22.4287 143.879ZM21.5205 145.109V143.728C21.5205 143.409 21.501 143.129 21.4619 142.888C21.4261 142.644 21.3724 142.435 21.3008 142.263C21.2292 142.09 21.138 141.95 21.0273 141.843C20.9199 141.735 20.7946 141.657 20.6514 141.608C20.5114 141.556 20.3535 141.53 20.1777 141.53C19.9629 141.53 19.7725 141.571 19.6064 141.652C19.4404 141.73 19.3005 141.856 19.1865 142.028C19.0758 142.201 18.9912 142.427 18.9326 142.707C18.874 142.987 18.8447 143.327 18.8447 143.728V145.109C18.8447 145.428 18.8626 145.71 18.8984 145.954C18.9375 146.198 18.9945 146.41 19.0693 146.589C19.1442 146.765 19.2354 146.91 19.3428 147.023C19.4502 147.137 19.5739 147.222 19.7139 147.277C19.8571 147.329 20.015 147.355 20.1875 147.355C20.4089 147.355 20.6025 147.313 20.7686 147.229C20.9346 147.144 21.0729 147.012 21.1836 146.833C21.2975 146.651 21.3822 146.418 21.4375 146.135C21.4928 145.848 21.5205 145.507 21.5205 145.109Z" fill="#A3A3A3"/>
<path d="M11.1982 77.0762C11.1982 77.5091 11.0973 77.877 10.8955 78.1797C10.6969 78.4792 10.4268 78.707 10.085 78.8633C9.74642 79.0195 9.36393 79.0977 8.9375 79.0977C8.51107 79.0977 8.12695 79.0195 7.78516 78.8633C7.44336 78.707 7.17318 78.4792 6.97461 78.1797C6.77604 77.877 6.67676 77.5091 6.67676 77.0762C6.67676 76.793 6.73047 76.5342 6.83789 76.2998C6.94857 76.0622 7.10319 75.8555 7.30176 75.6797C7.50358 75.5039 7.74121 75.3688 8.01465 75.2744C8.29134 75.1768 8.5957 75.1279 8.92773 75.1279C9.36393 75.1279 9.75293 75.2126 10.0947 75.3818C10.4365 75.5479 10.7051 75.7773 10.9004 76.0703C11.099 76.3633 11.1982 76.6986 11.1982 77.0762ZM10.29 77.0566C10.29 76.793 10.2331 76.5602 10.1191 76.3584C10.0052 76.1533 9.8457 75.9938 9.64062 75.8799C9.43555 75.766 9.19792 75.709 8.92773 75.709C8.65104 75.709 8.41178 75.766 8.20996 75.8799C8.01139 75.9938 7.85677 76.1533 7.74609 76.3584C7.63542 76.5602 7.58008 76.793 7.58008 77.0566C7.58008 77.3301 7.63379 77.5645 7.74121 77.7598C7.85189 77.9518 8.00814 78.0999 8.20996 78.2041C8.41504 78.305 8.65755 78.3555 8.9375 78.3555C9.21745 78.3555 9.45833 78.305 9.66016 78.2041C9.86198 78.0999 10.0166 77.9518 10.124 77.7598C10.2347 77.5645 10.29 77.3301 10.29 77.0566ZM11.0322 73.7412C11.0322 74.0863 10.9411 74.3971 10.7588 74.6738C10.5765 74.9505 10.3275 75.1686 10.0117 75.3281C9.69596 75.4876 9.33789 75.5674 8.9375 75.5674C8.5306 75.5674 8.16764 75.4876 7.84863 75.3281C7.53288 75.1686 7.28548 74.9505 7.10645 74.6738C6.92741 74.3971 6.83789 74.0863 6.83789 73.7412C6.83789 73.3278 6.92741 72.9762 7.10645 72.6865C7.28874 72.3968 7.53776 72.1755 7.85352 72.0225C8.16927 71.8695 8.52897 71.793 8.93262 71.793C9.33952 71.793 9.70085 71.8695 10.0166 72.0225C10.3324 72.1755 10.5798 72.3968 10.7588 72.6865C10.9411 72.9762 11.0322 73.3278 11.0322 73.7412ZM10.1289 73.7559C10.1289 73.5182 10.0785 73.3083 9.97754 73.126C9.87663 72.9437 9.73665 72.8005 9.55762 72.6963C9.37858 72.5889 9.17025 72.5352 8.93262 72.5352C8.69499 72.5352 8.48665 72.5856 8.30762 72.6865C8.13184 72.7842 7.99349 72.9242 7.89258 73.1064C7.79492 73.2887 7.74609 73.5052 7.74609 73.7559C7.74609 74 7.79492 74.2132 7.89258 74.3955C7.99349 74.5778 8.13346 74.7194 8.3125 74.8203C8.49154 74.9212 8.69987 74.9717 8.9375 74.9717C9.17513 74.9717 9.38184 74.9212 9.55762 74.8203C9.73665 74.7194 9.87663 74.5778 9.97754 74.3955C10.0785 74.2132 10.1289 74 10.1289 73.7559ZM16.8037 74.8789V75.9629C16.8037 76.5456 16.7516 77.0371 16.6475 77.4375C16.5433 77.8379 16.3936 78.1602 16.1982 78.4043C16.0029 78.6484 15.7669 78.8258 15.4902 78.9365C15.2168 79.0439 14.9076 79.0977 14.5625 79.0977C14.2891 79.0977 14.0368 79.0635 13.8057 78.9951C13.5745 78.9268 13.3662 78.8177 13.1807 78.668C12.9984 78.515 12.8421 78.3164 12.7119 78.0723C12.5817 77.8281 12.4824 77.5319 12.4141 77.1836C12.3457 76.8353 12.3115 76.4284 12.3115 75.9629V74.8789C12.3115 74.2962 12.3636 73.8079 12.4678 73.4141C12.5752 73.0202 12.7266 72.7044 12.9219 72.4668C13.1172 72.2259 13.3516 72.0534 13.625 71.9492C13.9017 71.8451 14.2109 71.793 14.5527 71.793C14.8294 71.793 15.0833 71.8271 15.3145 71.8955C15.5488 71.9606 15.7572 72.0664 15.9395 72.2129C16.1217 72.3561 16.2764 72.5482 16.4033 72.7891C16.5335 73.0267 16.6328 73.318 16.7012 73.6631C16.7695 74.0081 16.8037 74.4134 16.8037 74.8789ZM15.8955 76.1094V74.7275C15.8955 74.4085 15.876 74.1286 15.8369 73.8877C15.8011 73.6436 15.7474 73.4352 15.6758 73.2627C15.6042 73.0902 15.513 72.9502 15.4023 72.8428C15.2949 72.7354 15.1696 72.6572 15.0264 72.6084C14.8864 72.5563 14.7285 72.5303 14.5527 72.5303C14.3379 72.5303 14.1475 72.571 13.9814 72.6523C13.8154 72.7305 13.6755 72.8558 13.5615 73.0283C13.4508 73.2008 13.3662 73.4271 13.3076 73.707C13.249 73.987 13.2197 74.3271 13.2197 74.7275V76.1094C13.2197 76.4284 13.2376 76.71 13.2734 76.9541C13.3125 77.1982 13.3695 77.4098 13.4443 77.5889C13.5192 77.7646 13.6104 77.9095 13.7178 78.0234C13.8252 78.1374 13.9489 78.222 14.0889 78.2773C14.2321 78.3294 14.39 78.3555 14.5625 78.3555C14.7839 78.3555 14.9775 78.3132 15.1436 78.2285C15.3096 78.1439 15.4479 78.012 15.5586 77.833C15.6725 77.6507 15.7572 77.418 15.8125 77.1348C15.8678 76.8483 15.8955 76.5065 15.8955 76.1094ZM22.4287 74.8789V75.9629C22.4287 76.5456 22.3766 77.0371 22.2725 77.4375C22.1683 77.8379 22.0186 78.1602 21.8232 78.4043C21.6279 78.6484 21.3919 78.8258 21.1152 78.9365C20.8418 79.0439 20.5326 79.0977 20.1875 79.0977C19.9141 79.0977 19.6618 79.0635 19.4307 78.9951C19.1995 78.9268 18.9912 78.8177 18.8057 78.668C18.6234 78.515 18.4671 78.3164 18.3369 78.0723C18.2067 77.8281 18.1074 77.5319 18.0391 77.1836C17.9707 76.8353 17.9365 76.4284 17.9365 75.9629V74.8789C17.9365 74.2962 17.9886 73.8079 18.0928 73.4141C18.2002 73.0202 18.3516 72.7044 18.5469 72.4668C18.7422 72.2259 18.9766 72.0534 19.25 71.9492C19.5267 71.8451 19.8359 71.793 20.1777 71.793C20.4544 71.793 20.7083 71.8271 20.9395 71.8955C21.1738 71.9606 21.3822 72.0664 21.5645 72.2129C21.7467 72.3561 21.9014 72.5482 22.0283 72.7891C22.1585 73.0267 22.2578 73.318 22.3262 73.6631C22.3945 74.0081 22.4287 74.4134 22.4287 74.8789ZM21.5205 76.1094V74.7275C21.5205 74.4085 21.501 74.1286 21.4619 73.8877C21.4261 73.6436 21.3724 73.4352 21.3008 73.2627C21.2292 73.0902 21.138 72.9502 21.0273 72.8428C20.9199 72.7354 20.7946 72.6572 20.6514 72.6084C20.5114 72.5563 20.3535 72.5303 20.1777 72.5303C19.9629 72.5303 19.7725 72.571 19.6064 72.6523C19.4404 72.7305 19.3005 72.8558 19.1865 73.0283C19.0758 73.2008 18.9912 73.4271 18.9326 73.707C18.874 73.987 18.8447 74.3271 18.8447 74.7275V76.1094C18.8447 76.4284 18.8626 76.71 18.8984 76.9541C18.9375 77.1982 18.9945 77.4098 19.0693 77.5889C19.1442 77.7646 19.2354 77.9095 19.3428 78.0234C19.4502 78.1374 19.5739 78.222 19.7139 78.2773C19.8571 78.3294 20.015 78.3555 20.1875 78.3555C20.4089 78.3555 20.6025 78.3132 20.7686 78.2285C20.9346 78.1439 21.0729 78.012 21.1836 77.833C21.2975 77.6507 21.3822 77.418 21.4375 77.1348C21.4928 76.8483 21.5205 76.5065 21.5205 76.1094Z" fill="#A3A3A3"/>
<path d="M4.05957 1.85156V9H3.15625V2.97949L1.33496 3.64355V2.82812L3.91797 1.85156H4.05957ZM11.1787 4.87891V5.96289C11.1787 6.54557 11.1266 7.03711 11.0225 7.4375C10.9183 7.83789 10.7686 8.16016 10.5732 8.4043C10.3779 8.64844 10.1419 8.82585 9.86523 8.93652C9.5918 9.04395 9.28255 9.09766 8.9375 9.09766C8.66406 9.09766 8.41178 9.06348 8.18066 8.99512C7.94954 8.92676 7.74121 8.81771 7.55566 8.66797C7.37337 8.51497 7.21712 8.31641 7.08691 8.07227C6.95671 7.82812 6.85742 7.5319 6.78906 7.18359C6.7207 6.83529 6.68652 6.42839 6.68652 5.96289V4.87891C6.68652 4.29622 6.73861 3.80794 6.84277 3.41406C6.9502 3.02018 7.10156 2.70443 7.29688 2.4668C7.49219 2.22591 7.72656 2.05339 8 1.94922C8.27669 1.84505 8.58594 1.79297 8.92773 1.79297C9.20443 1.79297 9.45833 1.82715 9.68945 1.89551C9.92383 1.96061 10.1322 2.06641 10.3145 2.21289C10.4967 2.35612 10.6514 2.54818 10.7783 2.78906C10.9085 3.02669 11.0078 3.31803 11.0762 3.66309C11.1445 4.00814 11.1787 4.41341 11.1787 4.87891ZM10.2705 6.10938V4.72754C10.2705 4.40853 10.251 4.12858 10.2119 3.8877C10.1761 3.64355 10.1224 3.43522 10.0508 3.2627C9.97917 3.09017 9.88802 2.9502 9.77734 2.84277C9.66992 2.73535 9.5446 2.65723 9.40137 2.6084C9.26139 2.55632 9.10352 2.53027 8.92773 2.53027C8.71289 2.53027 8.52246 2.57096 8.35645 2.65234C8.19043 2.73047 8.05046 2.85579 7.93652 3.02832C7.82585 3.20085 7.74121 3.42708 7.68262 3.70703C7.62402 3.98698 7.59473 4.32715 7.59473 4.72754V6.10938C7.59473 6.42839 7.61263 6.70996 7.64844 6.9541C7.6875 7.19824 7.74447 7.40983 7.81934 7.58887C7.89421 7.76465 7.98535 7.90951 8.09277 8.02344C8.2002 8.13737 8.32389 8.22201 8.46387 8.27734C8.6071 8.32943 8.76497 8.35547 8.9375 8.35547C9.15885 8.35547 9.35254 8.31315 9.51855 8.22852C9.68457 8.14388 9.82292 8.01204 9.93359 7.83301C10.0475 7.65072 10.1322 7.41797 10.1875 7.13477C10.2428 6.84831 10.2705 6.50651 10.2705 6.10938ZM16.8037 4.87891V5.96289C16.8037 6.54557 16.7516 7.03711 16.6475 7.4375C16.5433 7.83789 16.3936 8.16016 16.1982 8.4043C16.0029 8.64844 15.7669 8.82585 15.4902 8.93652C15.2168 9.04395 14.9076 9.09766 14.5625 9.09766C14.2891 9.09766 14.0368 9.06348 13.8057 8.99512C13.5745 8.92676 13.3662 8.81771 13.1807 8.66797C12.9984 8.51497 12.8421 8.31641 12.7119 8.07227C12.5817 7.82812 12.4824 7.5319 12.4141 7.18359C12.3457 6.83529 12.3115 6.42839 12.3115 5.96289V4.87891C12.3115 4.29622 12.3636 3.80794 12.4678 3.41406C12.5752 3.02018 12.7266 2.70443 12.9219 2.4668C13.1172 2.22591 13.3516 2.05339 13.625 1.94922C13.9017 1.84505 14.2109 1.79297 14.5527 1.79297C14.8294 1.79297 15.0833 1.82715 15.3145 1.89551C15.5488 1.96061 15.7572 2.06641 15.9395 2.21289C16.1217 2.35612 16.2764 2.54818 16.4033 2.78906C16.5335 3.02669 16.6328 3.31803 16.7012 3.66309C16.7695 4.00814 16.8037 4.41341 16.8037 4.87891ZM15.8955 6.10938V4.72754C15.8955 4.40853 15.876 4.12858 15.8369 3.8877C15.8011 3.64355 15.7474 3.43522 15.6758 3.2627C15.6042 3.09017 15.513 2.9502 15.4023 2.84277C15.2949 2.73535 15.1696 2.65723 15.0264 2.6084C14.8864 2.55632 14.7285 2.53027 14.5527 2.53027C14.3379 2.53027 14.1475 2.57096 13.9814 2.65234C13.8154 2.73047 13.6755 2.85579 13.5615 3.02832C13.4508 3.20085 13.3662 3.42708 13.3076 3.70703C13.249 3.98698 13.2197 4.32715 13.2197 4.72754V6.10938C13.2197 6.42839 13.2376 6.70996 13.2734 6.9541C13.3125 7.19824 13.3695 7.40983 13.4443 7.58887C13.5192 7.76465 13.6104 7.90951 13.7178 8.02344C13.8252 8.13737 13.9489 8.22201 14.0889 8.27734C14.2321 8.32943 14.39 8.35547 14.5625 8.35547C14.7839 8.35547 14.9775 8.31315 15.1436 8.22852C15.3096 8.14388 15.4479 8.01204 15.5586 7.83301C15.6725 7.65072 15.7572 7.41797 15.8125 7.13477C15.8678 6.84831 15.8955 6.50651 15.8955 6.10938ZM22.4287 4.87891V5.96289C22.4287 6.54557 22.3766 7.03711 22.2725 7.4375C22.1683 7.83789 22.0186 8.16016 21.8232 8.4043C21.6279 8.64844 21.3919 8.82585 21.1152 8.93652C20.8418 9.04395 20.5326 9.09766 20.1875 9.09766C19.9141 9.09766 19.6618 9.06348 19.4307 8.99512C19.1995 8.92676 18.9912 8.81771 18.8057 8.66797C18.6234 8.51497 18.4671 8.31641 18.3369 8.07227C18.2067 7.82812 18.1074 7.5319 18.0391 7.18359C17.9707 6.83529 17.9365 6.42839 17.9365 5.96289V4.87891C17.9365 4.29622 17.9886 3.80794 18.0928 3.41406C18.2002 3.02018 18.3516 2.70443 18.5469 2.4668C18.7422 2.22591 18.9766 2.05339 19.25 1.94922C19.5267 1.84505 19.8359 1.79297 20.1777 1.79297C20.4544 1.79297 20.7083 1.82715 20.9395 1.89551C21.1738 1.96061 21.3822 2.06641 21.5645 2.21289C21.7467 2.35612 21.9014 2.54818 22.0283 2.78906C22.1585 3.02669 22.2578 3.31803 22.3262 3.66309C22.3945 4.00814 22.4287 4.41341 22.4287 4.87891ZM21.5205 6.10938V4.72754C21.5205 4.40853 21.501 4.12858 21.4619 3.8877C21.4261 3.64355 21.3724 3.43522 21.3008 3.2627C21.2292 3.09017 21.138 2.9502 21.0273 2.84277C20.9199 2.73535 20.7946 2.65723 20.6514 2.6084C20.5114 2.55632 20.3535 2.53027 20.1777 2.53027C19.9629 2.53027 19.7725 2.57096 19.6064 2.65234C19.4404 2.73047 19.3005 2.85579 19.1865 3.02832C19.0758 3.20085 18.9912 3.42708 18.9326 3.70703C18.874 3.98698 18.8447 4.32715 18.8447 4.72754V6.10938C18.8447 6.42839 18.8626 6.70996 18.8984 6.9541C18.9375 7.19824 18.9945 7.40983 19.0693 7.58887C19.1442 7.76465 19.2354 7.90951 19.3428 8.02344C19.4502 8.13737 19.5739 8.22201 19.7139 8.27734C19.8571 8.32943 20.015 8.35547 20.1875 8.35547C20.4089 8.35547 20.6025 8.31315 20.7686 8.22852C20.9346 8.14388 21.0729 8.01204 21.1836 7.83301C21.2975 7.65072 21.3822 7.41797 21.4375 7.13477C21.4928 6.84831 21.5205 6.50651 21.5205 6.10938Z" fill="#A3A3A3"/>
<path d="M33 248.375C33 248.375 89.6 248.375 127.333 226.908C165.067 205.44 183.933 115.415 221.667 115.415C259.4 115.415 278.267 115.415 316 116.108C353.733 116.8 372.6 130.442 410.333 138.268C448.067 146.093 466.933 138.268 504.667 155.234C542.4 172.2 599 248.375 599 248.375" stroke="#01FFFF" stroke-width="2"/>
<path d="M33 248.375C33 248.375 89.6 153.849 127.333 153.849C165.067 153.849 183.933 263.61 221.667 263.61C259.4 263.61 278.267 236.049 316 192.975C353.733 149.902 372.6 48.2425 410.333 48.2425C448.067 48.2425 466.933 235.91 504.667 242.142C542.4 248.375 599 248.375 599 248.375" stroke="#5E85F8" stroke-width="2"/>
<path d="M33 252C31.9393 252 30.922 251.579 30.1719 250.829C29.4218 250.079 29.0003 249.062 29 248.001C28.9997 246.94 29.4208 245.923 30.1705 245.173C30.9203 244.422 31.9373 244.001 32.998 244C34.0587 243.999 35.0762 244.42 35.8267 245.17C36.5772 245.919 36.9992 246.936 37 247.997C37.0008 249.058 36.5803 250.075 35.8309 250.826C35.0815 251.577 34.0647 251.999 33.004 252H33Z" fill="#01FFFF"/>
<path d="M127 231C125.939 231 124.922 230.579 124.172 229.829C123.422 229.079 123 228.062 123 227.001C123 225.94 123.421 224.923 124.171 224.173C124.92 223.422 125.937 223.001 126.998 223C128.059 222.999 129.076 223.42 129.827 224.17C130.577 224.919 130.999 225.936 131 226.997C131.001 228.058 130.58 229.075 129.831 229.826C129.082 230.577 128.065 230.999 127.004 231H127Z" fill="#01FFFF"/>
<path d="M221 119C219.939 119 218.922 118.579 218.172 117.829C217.422 117.079 217 116.062 217 115.001C217 113.94 217.421 112.923 218.171 112.173C218.92 111.422 219.937 111.001 220.998 111C222.059 110.999 223.076 111.42 223.827 112.17C224.577 112.919 224.999 113.936 225 114.997C225.001 116.058 224.58 117.075 223.831 117.826C223.082 118.577 222.065 118.999 221.004 119H221Z" fill="#01FFFF"/>
<path d="M316 120C314.939 120 313.922 119.579 313.172 118.829C312.422 118.079 312 117.062 312 116.001C312 114.94 312.421 113.923 313.171 113.173C313.92 112.422 314.937 112.001 315.998 112C317.059 111.999 318.076 112.42 318.827 113.17C319.577 113.919 319.999 114.936 320 115.997C320.001 117.058 319.58 118.075 318.831 118.826C318.082 119.577 317.065 119.999 316.004 120H316Z" fill="#01FFFF"/>
<path d="M410 142C408.939 142 407.922 141.579 407.172 140.829C406.422 140.079 406 139.062 406 138.001C406 136.94 406.421 135.923 407.171 135.173C407.92 134.422 408.937 134.001 409.998 134C411.059 133.999 412.076 134.42 412.827 135.17C413.577 135.919 413.999 136.936 414 137.997C414.001 139.058 413.58 140.075 412.831 140.826C412.082 141.577 411.065 141.999 410.004 142H410Z" fill="#01FFFF"/>
<path d="M504 159C502.939 159 501.922 158.579 501.172 157.829C500.422 157.079 500 156.062 500 155.001C500 153.94 500.421 152.923 501.171 152.173C501.92 151.422 502.937 151.001 503.998 151C505.059 150.999 506.076 151.42 506.827 152.17C507.577 152.919 507.999 153.936 508 154.997C508.001 156.058 507.58 157.075 506.831 157.826C506.082 158.577 505.065 158.999 504.004 159H504Z" fill="#01FFFF"/>
<path d="M599 252C597.939 252 596.922 251.579 596.172 250.829C595.422 250.079 595 249.062 595 248.001C595 246.94 595.421 245.923 596.171 245.173C596.92 244.422 597.937 244.001 598.998 244C600.059 243.999 601.076 244.42 601.827 245.17C602.577 245.919 602.999 246.936 603 247.997C603.001 249.058 602.58 250.075 601.831 250.826C601.082 251.577 600.065 251.999 599.004 252H599Z" fill="#01FFFF"/>
<path d="M33 252C31.9393 252 30.922 251.579 30.1719 250.829C29.4218 250.079 29.0003 249.062 29 248.001C28.9997 246.94 29.4208 245.923 30.1705 245.173C30.9203 244.422 31.9373 244.001 32.998 244C34.0587 243.999 35.0762 244.42 35.8267 245.17C36.5772 245.919 36.9992 246.936 37 247.997C37.0008 249.058 36.5803 250.075 35.8309 250.826C35.0815 251.577 34.0647 251.999 33.004 252H33Z" fill="#5E85F8"/>
<path d="M127 158C125.939 158 124.922 157.579 124.172 156.829C123.422 156.079 123 155.062 123 154.001C123 152.94 123.421 151.923 124.171 151.173C124.92 150.422 125.937 150.001 126.998 150C128.059 149.999 129.076 150.42 129.827 151.17C130.577 151.919 130.999 152.936 131 153.997C131.001 155.058 130.58 156.075 129.831 156.826C129.082 157.577 128.065 157.999 127.004 158H127Z" fill="#5E85F8"/>
<path d="M221 268C219.939 268 218.922 267.579 218.172 266.829C217.422 266.079 217 265.062 217 264.001C217 262.94 217.421 261.923 218.171 261.173C218.92 260.422 219.937 260.001 220.998 260C222.059 259.999 223.076 260.42 223.827 261.17C224.577 261.919 224.999 262.936 225 263.997C225.001 265.058 224.58 266.075 223.831 266.826C223.082 267.577 222.065 267.999 221.004 268H221Z" fill="#5E85F8"/>
<path d="M316 197C314.939 197 313.922 196.579 313.172 195.829C312.422 195.079 312 194.062 312 193.001C312 191.94 312.421 190.923 313.171 190.173C313.92 189.422 314.937 189.001 315.998 189C317.059 188.999 318.076 189.42 318.827 190.17C319.577 190.919 319.999 191.936 320 192.997C320.001 194.058 319.58 195.075 318.831 195.826C318.082 196.577 317.065 196.999 316.004 197H316Z" fill="#5E85F8"/>
<path d="M410 52C408.939 52 407.922 51.5787 407.172 50.8288C406.422 50.0789 406 49.0617 406 48.001C406 46.9403 406.421 45.9229 407.171 45.1726C407.92 44.4223 408.937 44.0005 409.998 44C411.059 43.9995 412.076 44.4203 412.827 45.1698C413.577 45.9194 413.999 46.9363 414 47.997C414.001 49.0577 413.58 50.0753 412.831 50.826C412.082 51.5766 411.065 51.9989 410.004 52L410 52Z" fill="#5E85F8"/>
<path d="M504 246C502.939 246 501.922 245.579 501.172 244.829C500.422 244.079 500 243.062 500 242.001C500 240.94 500.421 239.923 501.171 239.173C501.92 238.422 502.937 238.001 503.998 238C505.059 237.999 506.076 238.42 506.827 239.17C507.577 239.919 507.999 240.936 508 241.997C508.001 243.058 507.58 244.075 506.831 244.826C506.082 245.577 505.065 245.999 504.004 246H504Z" fill="#5E85F8"/>
<path d="M599 252C597.939 252 596.922 251.579 596.172 250.829C595.422 250.079 595 249.062 595 248.001C595 246.94 595.421 245.923 596.171 245.173C596.92 244.422 597.937 244.001 598.998 244C600.059 243.999 601.076 244.42 601.827 245.17C602.577 245.919 602.999 246.936 603 247.997C603.001 249.058 602.58 250.075 601.831 250.826C601.082 251.577 600.065 251.999 599.004 252H599Z" fill="#5E85F8"/>
</svg>
