<svg viewBox="0 0 20 20" fill="none" xmlns="http://www.w3.org/2000/svg">
<path d="M6.66668 7.91667C6.09138 7.91667 5.62501 8.38304 5.62501 8.95833C5.62501 9.53363 6.09138 10 6.66668 10C7.24197 10 7.70834 9.53363 7.70834 8.95833C7.70834 8.38304 7.24197 7.91667 6.66668 7.91667Z" fill="white"/>
<path d="M10 7.91667C9.42471 7.91667 8.95834 8.38304 8.95834 8.95833C8.95834 9.53363 9.42471 10 10 10C10.5753 10 11.0417 9.53363 11.0417 8.95833C11.0417 8.38304 10.5753 7.91667 10 7.91667Z" fill="white"/>
<path d="M12.2917 8.95833C12.2917 8.38304 12.758 7.91667 13.3333 7.91667C13.9086 7.91667 14.375 8.38304 14.375 8.95833C14.375 9.53363 13.9086 10 13.3333 10C12.758 10 12.2917 9.53363 12.2917 8.95833Z" fill="white"/>
<path fill-rule="evenodd" clip-rule="evenodd" d="M13.4173 3.82733C11.1721 3.63586 8.91523 3.62475 6.6683 3.7941L6.50727 3.80624C4.36451 3.96773 2.70834 5.75343 2.70834 7.90226V15C2.70834 15.2199 2.8239 15.4236 3.01263 15.5364C3.20137 15.6493 3.43551 15.6546 3.62921 15.5505L6.8882 13.7991C7.03979 13.7176 7.20921 13.675 7.38131 13.675H14.8616C15.8051 13.675 16.6135 13.0005 16.7827 12.0724C17.1254 10.1914 17.1525 8.26638 16.8628 6.37646L16.7774 5.81952C16.622 4.80556 15.7925 4.02988 14.7704 3.94272L13.4173 3.82733ZM6.76224 5.04056C8.94254 4.87624 11.1325 4.88702 13.3111 5.07281L14.6642 5.1882C15.1111 5.22632 15.4739 5.56552 15.5418 6.00891L15.6272 6.56585C15.8959 8.31859 15.8708 10.1038 15.5529 11.8483C15.4921 12.1823 15.2011 12.425 14.8616 12.425H7.38131C7.00269 12.425 6.62998 12.5188 6.29647 12.698L3.95834 13.9546V7.90226C3.95834 6.40734 5.11052 5.16505 6.60121 5.0527L6.76224 5.04056Z" fill="white"/>
</svg>
