<svg viewBox="0 0 171 36" fill="none" xmlns="http://www.w3.org/2000/svg">
<path d="M6.70313 29.9893H0V11.0803H6.75852C8.66051 11.0803 10.2978 11.4588 11.6705 12.2159C13.0431 12.9669 14.0987 14.0471 14.8374 15.4567C15.5822 16.8662 15.9545 18.5528 15.9545 20.5163C15.9545 22.486 15.5822 24.1787 14.8374 25.5945C14.0987 27.0102 13.0369 28.0966 11.652 28.8537C10.2732 29.6108 8.62358 29.9893 6.70313 29.9893ZM3.99787 26.5639H6.53693C7.71875 26.5639 8.71283 26.3546 9.51918 25.9361C10.3317 25.5114 10.9411 24.8558 11.3473 23.9695C11.7597 23.0769 11.9659 21.9259 11.9659 20.5163C11.9659 19.1191 11.7597 17.9773 11.3473 17.0909C10.9411 16.2045 10.3348 15.5521 9.52841 15.1335C8.72206 14.715 7.72798 14.5057 6.54616 14.5057H3.99787V26.5639Z" fill="#5E85F8"/>
<path d="M25.3052 30.2663C23.8464 30.2663 22.5907 29.9709 21.5382 29.38C20.4918 28.7829 19.6854 27.9396 19.1191 26.8501C18.5529 25.7545 18.2697 24.4588 18.2697 22.9631C18.2697 21.5043 18.5529 20.224 19.1191 19.1222C19.6854 18.0204 20.4825 17.1617 21.5105 16.5462C22.5446 15.9306 23.7572 15.6229 25.1483 15.6229C26.0839 15.6229 26.9548 15.7737 27.7612 16.0753C28.5737 16.3707 29.2815 16.817 29.8848 17.4141C30.4941 18.0111 30.9681 18.7621 31.3066 19.6669C31.6452 20.5656 31.8145 21.6181 31.8145 22.8246V23.9048H19.8393V21.4673H28.112C28.112 20.901 27.9889 20.3994 27.7427 19.9624C27.4965 19.5253 27.1549 19.1837 26.7179 18.9375C26.287 18.6851 25.7853 18.5589 25.2129 18.5589C24.6158 18.5589 24.0865 18.6974 23.6248 18.9744C23.1693 19.2453 22.8123 19.6115 22.5538 20.0732C22.2953 20.5286 22.1629 21.0365 22.1568 21.5966V23.9141C22.1568 24.6158 22.286 25.2221 22.5446 25.733C22.8092 26.2438 23.1816 26.6378 23.6618 26.9148C24.1419 27.1918 24.7112 27.3303 25.3699 27.3303C25.8069 27.3303 26.207 27.2687 26.5701 27.1456C26.9333 27.0225 27.2441 26.8378 27.5027 26.5916C27.7612 26.3454 27.9582 26.0438 28.0936 25.6868L31.7314 25.9268C31.5467 26.8009 31.1681 27.5642 30.5957 28.2166C30.0294 28.8629 29.2969 29.3677 28.3983 29.7308C27.5057 30.0878 26.4747 30.2663 25.3052 30.2663Z" fill="#5E85F8"/>
<path d="M46.1809 19.8516L42.5801 20.0732C42.5185 19.7654 42.3862 19.4884 42.1831 19.2422C41.9799 18.9898 41.7122 18.7898 41.3798 18.642C41.0536 18.4882 40.6627 18.4112 40.2072 18.4112C39.5978 18.4112 39.0839 18.5405 38.6653 18.799C38.2467 19.0514 38.0375 19.3899 38.0375 19.8146C38.0375 20.1532 38.1729 20.4394 38.4437 20.6733C38.7145 20.9072 39.1793 21.0949 39.8379 21.2365L42.4047 21.7536C43.7834 22.0367 44.8114 22.4922 45.4885 23.12C46.1655 23.7479 46.5041 24.5727 46.5041 25.5945C46.5041 26.5239 46.2302 27.3395 45.6824 28.0412C45.1407 28.7429 44.3959 29.2907 43.448 29.6847C42.5062 30.0724 41.4198 30.2663 40.1887 30.2663C38.3114 30.2663 36.8156 29.8755 35.7015 29.0938C34.5936 28.3059 33.9442 27.2348 33.7534 25.8807L37.622 25.6776C37.7389 26.25 38.0221 26.687 38.4714 26.9886C38.9207 27.2841 39.4963 27.4318 40.198 27.4318C40.8874 27.4318 41.4413 27.2995 41.8599 27.0348C42.2846 26.764 42.5001 26.4162 42.5062 25.9915C42.5001 25.6345 42.3493 25.3421 42.0538 25.1143C41.7583 24.8804 41.3029 24.7019 40.6873 24.5788L38.2314 24.0895C36.8464 23.8125 35.8154 23.3324 35.1383 22.6491C34.4674 21.9659 34.1319 21.0949 34.1319 20.0362C34.1319 19.1252 34.3781 18.3404 34.8706 17.6818C35.3691 17.0232 36.0678 16.5154 36.9664 16.1584C37.8713 15.8014 38.93 15.6229 40.1426 15.6229C41.9338 15.6229 43.3433 16.0014 44.3713 16.7585C45.4054 17.5156 46.0086 18.5466 46.1809 19.8516Z" fill="#5E85F8"/>
<path d="M48.9808 29.9893V15.8075H52.9141V29.9893H48.9808Z" fill="#5E85F8"/>
<path d="M62.454 35.603C61.1799 35.603 60.0873 35.4276 59.1763 35.0767C58.2715 34.732 57.5513 34.2611 57.0158 33.6641C56.4803 33.067 56.1325 32.3961 55.9725 31.6513L59.6103 31.1619C59.7211 31.4451 59.8965 31.7098 60.1365 31.956C60.3766 32.2022 60.6936 32.3991 61.0875 32.5469C61.4876 32.7008 61.9739 32.7777 62.5463 32.7777C63.4019 32.7777 64.1067 32.5684 64.6607 32.1499C65.2208 31.7375 65.5009 31.045 65.5009 30.0724V27.478H65.3347C65.1623 27.8719 64.9038 28.2443 64.5591 28.5952C64.2144 28.946 63.7712 29.2322 63.2296 29.4538C62.6879 29.6754 62.0416 29.7862 61.2907 29.7862C60.2258 29.7862 59.2563 29.54 58.3823 29.0476C57.5144 28.549 56.8219 27.7888 56.3049 26.767C55.794 25.7391 55.5385 24.4403 55.5385 22.8707C55.5385 21.2642 55.8001 19.9223 56.3233 18.8452C56.8465 17.768 57.5421 16.9616 58.41 16.4261C59.284 15.8906 60.2412 15.6229 61.2814 15.6229C62.0755 15.6229 62.7402 15.7583 63.2757 16.0291C63.8113 16.2938 64.2421 16.6262 64.5684 17.0263C64.9007 17.4202 65.1562 17.808 65.3347 18.1896H65.4824V15.8075H69.388V30.1278C69.388 31.3343 69.0925 32.3438 68.5016 33.1563C67.9107 33.9688 67.092 34.5781 66.0456 34.9844C65.0054 35.3968 63.8082 35.603 62.454 35.603ZM62.5371 26.8317C63.1711 26.8317 63.7066 26.6747 64.1436 26.3608C64.5868 26.0407 64.9254 25.5852 65.1593 24.9943C65.3993 24.3973 65.5194 23.6832 65.5194 22.8523C65.5194 22.0213 65.4024 21.3011 65.1685 20.6918C64.9346 20.0762 64.5961 19.5992 64.1529 19.2607C63.7097 18.9221 63.1711 18.7528 62.5371 18.7528C61.8908 18.7528 61.3461 18.9283 60.9029 19.2791C60.4597 19.6238 60.1242 20.1039 59.8965 20.7195C59.6687 21.335 59.5549 22.0459 59.5549 22.8523C59.5549 23.6709 59.6687 24.3788 59.8965 24.9759C60.1304 25.5668 60.4659 26.0253 60.9029 26.3516C61.3461 26.6716 61.8908 26.8317 62.5371 26.8317Z" fill="#5E85F8"/>
<path d="M76.4512 21.7905V29.9893H72.5179V15.8075H76.2665V18.3097H76.4327C76.7466 17.4848 77.2729 16.8324 78.0115 16.3523C78.7502 15.866 79.6458 15.6229 80.6983 15.6229C81.6832 15.6229 82.5418 15.8383 83.2743 16.2692C84.0068 16.7 84.5762 17.3156 84.9824 18.1158C85.3887 18.9098 85.5918 19.8577 85.5918 20.9595V29.9893H81.6586V21.6612C81.6647 20.7933 81.4431 20.1162 80.9938 19.63C80.5445 19.1375 79.9258 18.8913 79.138 18.8913C78.6086 18.8913 78.1408 19.0052 77.7346 19.233C77.3345 19.4607 77.0205 19.7931 76.7928 20.2301C76.5712 20.661 76.4573 21.1811 76.4512 21.7905Z" fill="#5E85F8"/>
<path d="M92.7358 30.2571C91.831 30.2571 91.0246 30.1001 90.3168 29.7862C89.6089 29.4661 89.0488 28.9953 88.6364 28.3736C88.2301 27.7457 88.027 26.964 88.027 26.0284C88.027 25.2405 88.1716 24.5788 88.4609 24.0433C88.7502 23.5078 89.1442 23.0769 89.6428 22.7507C90.1413 22.4245 90.7076 22.1783 91.3416 22.0121C91.9818 21.8459 92.6527 21.7289 93.3544 21.6612C94.1792 21.575 94.844 21.495 95.3487 21.4212C95.8535 21.3411 96.2197 21.2242 96.4474 21.0703C96.6752 20.9164 96.7891 20.6887 96.7891 20.3871V20.3317C96.7891 19.7469 96.6044 19.2945 96.2351 18.9744C95.8719 18.6544 95.3549 18.4943 94.684 18.4943C93.9761 18.4943 93.4129 18.6513 92.9943 18.9652C92.5758 19.273 92.2988 19.6607 92.1634 20.1286L88.5256 19.8331C88.7102 18.9714 89.0734 18.2266 89.6151 17.5987C90.1567 16.9647 90.8554 16.4785 91.7109 16.1399C92.5727 15.7952 93.5698 15.6229 94.7024 15.6229C95.4903 15.6229 96.2443 15.7152 96.9645 15.8999C97.6908 16.0845 98.334 16.3707 98.8942 16.7585C99.4605 17.1463 99.9067 17.6449 100.233 18.2543C100.559 18.8575 100.722 19.5807 100.722 20.424V29.9893H96.9922V28.0227H96.8814C96.6536 28.4659 96.349 28.8568 95.9673 29.1953C95.5857 29.5277 95.1271 29.7893 94.5916 29.9801C94.0561 30.1648 93.4375 30.2571 92.7358 30.2571ZM93.8622 27.5426C94.4408 27.5426 94.9517 27.4287 95.3949 27.201C95.8381 26.9671 96.1858 26.6532 96.4382 26.2592C96.6906 25.8653 96.8168 25.419 96.8168 24.9205V23.4155C96.6937 23.4955 96.5244 23.5694 96.309 23.6371C96.0997 23.6986 95.8627 23.7571 95.598 23.8125C95.3333 23.8617 95.0687 23.9079 94.804 23.951C94.5393 23.9879 94.2992 24.0218 94.0838 24.0526C93.6222 24.1203 93.219 24.228 92.8743 24.3757C92.5296 24.5234 92.2618 24.7235 92.071 24.9759C91.8802 25.2221 91.7848 25.5298 91.7848 25.8991C91.7848 26.4347 91.9787 26.844 92.3665 27.1271C92.7604 27.4041 93.259 27.5426 93.8622 27.5426Z" fill="#5E85F8"/>
<path d="M107.707 11.0803V29.9893H103.774V11.0803H107.707Z" fill="#5E85F8"/>
<path d="M133.04 15.8075V18.7621H124.5V15.8075H133.04ZM126.439 12.4098H130.372V25.6314C130.372 25.9946 130.428 26.2777 130.538 26.4808C130.649 26.6778 130.803 26.8163 131 26.8963C131.203 26.9763 131.437 27.0163 131.702 27.0163C131.886 27.0163 132.071 27.0009 132.256 26.9702C132.44 26.9332 132.582 26.9055 132.68 26.8871L133.299 29.8139C133.102 29.8755 132.825 29.9463 132.468 30.0263C132.111 30.1125 131.677 30.1648 131.166 30.1832C130.218 30.2202 129.387 30.094 128.673 29.8047C127.965 29.5154 127.415 29.0661 127.021 28.4567C126.627 27.8473 126.433 27.0779 126.439 26.1484V12.4098Z" fill="#5E85F8"/>
<path d="M135.603 29.9893V15.8075H139.536V29.9893H135.603ZM137.578 13.9794C136.994 13.9794 136.492 13.7855 136.074 13.3977C135.661 13.0038 135.455 12.5329 135.455 11.9851C135.455 11.4434 135.661 10.9787 136.074 10.5909C136.492 10.197 136.994 10 137.578 10C138.163 10 138.662 10.197 139.074 10.5909C139.493 10.9787 139.702 11.4434 139.702 11.9851C139.702 12.5329 139.493 13.0038 139.074 13.3977C138.662 13.7855 138.163 13.9794 137.578 13.9794Z" fill="#5E85F8"/>
<path d="M149.094 30.2663C147.642 30.2663 146.392 29.9586 145.346 29.343C144.305 28.7214 143.505 27.8596 142.945 26.7578C142.391 25.656 142.114 24.388 142.114 22.9538C142.114 21.5012 142.394 20.227 142.954 19.1314C143.521 18.0296 144.324 17.1709 145.364 16.5554C146.404 15.9337 147.642 15.6229 149.076 15.6229C150.313 15.6229 151.396 15.8475 152.326 16.2969C153.255 16.7462 153.991 17.3771 154.533 18.1896C155.074 19.0021 155.373 19.9562 155.428 21.0518H151.716C151.612 20.344 151.335 19.7746 150.885 19.3438C150.442 18.9067 149.861 18.6882 149.14 18.6882C148.531 18.6882 147.999 18.8544 147.543 19.1868C147.094 19.513 146.743 19.9901 146.491 20.6179C146.238 21.2457 146.112 22.0059 146.112 22.8984C146.112 23.8033 146.235 24.5727 146.481 25.2067C146.734 25.8407 147.088 26.3239 147.543 26.6562C147.999 26.9886 148.531 27.1548 149.14 27.1548C149.59 27.1548 149.993 27.0625 150.35 26.8778C150.713 26.6932 151.012 26.4254 151.246 26.0746C151.486 25.7176 151.643 25.2898 151.716 24.7912H155.428C155.367 25.8745 155.071 26.8286 154.542 27.6534C154.019 28.4721 153.295 29.1122 152.372 29.5739C151.449 30.0355 150.356 30.2663 149.094 30.2663Z" fill="#5E85F8"/>
<path d="M169.746 19.8516L166.145 20.0732C166.084 19.7654 165.951 19.4884 165.748 19.2422C165.545 18.9898 165.277 18.7898 164.945 18.642C164.619 18.4882 164.228 18.4112 163.772 18.4112C163.163 18.4112 162.649 18.5405 162.23 18.799C161.812 19.0514 161.603 19.3899 161.603 19.8146C161.603 20.1532 161.738 20.4394 162.009 20.6733C162.28 20.9072 162.744 21.0949 163.403 21.2365L165.97 21.7536C167.349 22.0367 168.377 22.4922 169.054 23.12C169.731 23.7479 170.069 24.5727 170.069 25.5945C170.069 26.5239 169.795 27.3395 169.248 28.0412C168.706 28.7429 167.961 29.2907 167.013 29.6847C166.071 30.0724 164.985 30.2663 163.754 30.2663C161.877 30.2663 160.381 29.8755 159.267 29.0938C158.159 28.3059 157.509 27.2348 157.319 25.8807L161.187 25.6776C161.304 26.25 161.587 26.687 162.037 26.9886C162.486 27.2841 163.061 27.4318 163.763 27.4318C164.453 27.4318 165.007 27.2995 165.425 27.0348C165.85 26.764 166.065 26.4162 166.071 25.9915C166.065 25.6345 165.914 25.3421 165.619 25.1143C165.324 24.8804 164.868 24.7019 164.252 24.5788L161.797 24.0895C160.412 23.8125 159.381 23.3324 158.703 22.6491C158.033 21.9659 157.697 21.0949 157.697 20.0362C157.697 19.1252 157.943 18.3404 158.436 17.6818C158.934 17.0232 159.633 16.5154 160.532 16.1584C161.436 15.8014 162.495 15.6229 163.708 15.6229C165.499 15.6229 166.908 16.0014 167.936 16.7585C168.971 17.5156 169.574 18.5466 169.746 19.8516Z" fill="#5E85F8"/>
<circle cx="51" cy="12" r="2" fill="#5E85F8"/>
<circle cx="51" cy="7" r="2" fill="#5E85F8" fill-opacity="0.6"/>
<circle cx="51" cy="2" r="2" fill="#5E85F8" fill-opacity="0.3"/>
<path d="M112.998 35.3182C112.499 35.3182 112.031 35.2782 111.594 35.1981C111.164 35.1243 110.807 35.0289 110.523 34.9119L111.41 31.9758C111.871 32.1174 112.287 32.1944 112.656 32.2067C113.032 32.219 113.355 32.1328 113.626 31.9481C113.903 31.7635 114.127 31.4496 114.3 31.0064L114.531 30.4062L109.443 15.8182H113.58L116.516 26.2329H116.663L119.627 15.8182H123.791L118.279 31.5327C118.014 32.2959 117.654 32.9607 117.199 33.527C116.75 34.0994 116.18 34.5395 115.491 34.8473C114.801 35.1612 113.97 35.3182 112.998 35.3182Z" fill="#5E85F8"/>
</svg>
