<svg viewBox="0 0 23 17" fill="none" xmlns="http://www.w3.org/2000/svg">
<path fill-rule="evenodd" clip-rule="evenodd" d="M0.27619 14.913C-0.0150332 14.604 -0.0831897 14.1403 0.106336 13.7573L1.02831 11.8942C3.21037 7.48481 7.63025 4.70558 12.4605 4.70558H12.9138C12.9469 3.9708 12.9895 3.23636 13.0418 2.50246L13.131 1.25094C13.2035 0.233155 14.3126 -0.335789 15.153 0.213675C17.9099 2.0162 20.3066 4.33881 22.2154 7.05769L22.8149 7.91156C23.0617 8.26319 23.0617 8.73681 22.8149 9.08844L22.2154 9.94231C20.3066 12.6612 17.9099 14.9838 15.153 16.7863C14.3126 17.3358 13.2035 16.7668 13.131 15.7491L13.0418 14.4975C12.9794 13.6211 12.9307 12.7439 12.8956 11.8663C10.0701 11.7828 7.2481 12.3663 4.65454 13.5911L1.3988 15.1287C1.01788 15.3086 0.567413 15.222 0.27619 14.913ZM3.19159 12.0603L3.8284 11.7596C6.99732 10.2631 10.4743 9.63125 13.9245 9.9024C14.4269 9.94189 14.8194 10.3628 14.8343 10.8782C14.8677 12.0366 14.9257 13.1944 15.008 14.3509L15.0152 14.451C17.1751 12.8888 19.0681 10.9679 20.6143 8.76543L20.8006 8.5L20.6143 8.23457C19.0681 6.03211 17.1751 4.1112 15.0152 2.54899L15.008 2.64912C14.9345 3.68141 14.8804 4.71478 14.8459 5.74867C14.8277 6.29197 14.392 6.72279 13.8607 6.72279L12.4605 6.72279C8.65262 6.72279 5.14615 8.76408 3.19159 12.0603Z" fill="#5E85F8"/>
</svg>
