<svg  viewBox="0 0 265 145" fill="none" xmlns="http://www.w3.org/2000/svg">
<path d="M12.8199 106.117C12.8199 106.117 37.3608 100.148 53.7213 96.1682C70.0819 92.1888 78.2621 90.8623 94.6227 86.2197C110.983 81.5771 119.164 78.9242 135.524 72.9552C151.885 66.9861 160.065 62.3435 176.425 56.3744C192.786 50.4054 200.966 47.0892 217.327 43.1099C233.687 39.1305 258.228 36.4776 258.228 36.4776" stroke="white" stroke-width="2"/>
<path d="M12.8199 108.587C12.1724 108.587 11.5514 108.314 11.0935 107.826C10.6356 107.338 10.3782 106.677 10.3781 105.987C10.3779 105.298 10.6349 104.636 11.0926 104.148C11.5503 103.66 12.1712 103.386 12.8187 103.386C13.4662 103.385 14.0874 103.659 14.5455 104.146C15.0037 104.634 15.2613 105.295 15.2618 105.985C15.2623 106.674 15.0056 107.336 14.5481 107.824C14.0906 108.312 13.4699 108.587 12.8224 108.587H12.8199Z" fill="white"/>
<path d="M53.7212 98.8341C53.0737 98.8341 52.4526 98.5601 51.9947 98.0725C51.5368 97.5849 51.2795 96.9235 51.2793 96.2338C51.2791 95.5441 51.5362 94.8826 51.9939 94.3947C52.4515 93.9069 53.0724 93.6326 53.7199 93.6323C54.3675 93.6319 54.9886 93.9055 55.4468 94.3929C55.9049 94.8803 56.1626 95.5415 56.163 96.2312C56.1635 96.9209 55.9068 97.5826 55.4493 98.0707C54.9919 98.5588 54.3711 98.8334 53.7236 98.8341H53.7212Z" fill="white"/>
<path d="M94.6226 89.0807C93.9751 89.0807 93.3541 88.8068 92.8961 88.3191C92.4382 87.8315 92.1809 87.1701 92.1807 86.4805C92.1806 85.7908 92.4376 85.1293 92.8953 84.6414C93.353 84.1535 93.9739 83.8793 94.6214 83.8789C95.2689 83.8786 95.89 84.1522 96.3482 84.6395C96.8063 85.1269 97.064 85.7882 97.0645 86.4778C97.065 87.1675 96.8082 87.8292 96.3508 88.3173C95.8933 88.8054 95.2726 89.08 94.625 89.0807H94.6226Z" fill="white"/>
<path d="M135.524 75.426C134.876 75.426 134.255 75.1521 133.797 74.6645C133.34 74.1768 133.082 73.5154 133.082 72.8258C133.082 72.1361 133.339 71.4746 133.797 70.9867C134.254 70.4988 134.875 70.2246 135.523 70.2242C136.17 70.2239 136.791 70.4975 137.249 70.9849C137.708 71.4722 137.965 72.1335 137.966 72.8232C137.966 73.5128 137.71 74.1745 137.252 74.6626C136.795 75.1507 136.174 75.4253 135.526 75.426H135.524Z" fill="white"/>
<path d="M176.425 59.1704C175.778 59.1704 175.157 58.8965 174.699 58.4088C174.241 57.9212 173.984 57.2598 173.984 56.5701C173.983 55.8805 174.24 55.2189 174.698 54.7311C175.156 54.2432 175.777 53.9689 176.424 53.9686C177.072 53.9683 177.693 54.2419 178.151 54.7292C178.609 55.2166 178.867 55.8779 178.867 56.5675C178.868 57.2572 178.611 57.9189 178.154 58.407C177.696 58.8951 177.075 59.1697 176.428 59.1704H176.425Z" fill="white"/>
<path d="M217.327 45.5157C216.679 45.5157 216.058 45.2417 215.6 44.7541C215.142 44.2665 214.885 43.6051 214.885 42.9154C214.885 42.2257 215.142 41.5642 215.599 41.0763C216.057 40.5885 216.678 40.3142 217.326 40.3139C217.973 40.3135 218.594 40.5871 219.052 41.0745C219.51 41.5619 219.768 42.2231 219.769 42.9128C219.769 43.6025 219.512 44.2642 219.055 44.7523C218.597 45.2404 217.977 45.515 217.329 45.5157H217.327Z" fill="white"/>
<path d="M258.505 43.4527C256.783 43.4527 255.131 42.6899 253.913 41.3321C252.695 39.9744 252.01 38.1328 252.01 36.2124C252.009 34.292 252.693 32.45 253.91 31.0915C255.128 29.7331 256.779 28.9694 258.502 28.9684C260.224 28.9675 261.876 29.7293 263.095 31.0864C264.313 32.4435 264.999 34.2847 265 36.2051C265.001 38.1255 264.318 39.9679 263.102 41.327C261.885 42.6861 260.234 43.4507 258.511 43.4527L258.505 43.4527Z" fill="white"/>
</svg>
