<svg viewBox="0 0 20 20" fill="none" xmlns="http://www.w3.org/2000/svg">
<path fill-rule="evenodd" clip-rule="evenodd" d="M10 3.125C7.29885 3.125 5.20333 4.81669 4.84569 6.875H6.66667C7.01184 6.875 7.29167 7.15482 7.29167 7.5V13.3333C7.29167 13.6785 7.01184 13.9583 6.66667 13.9583H4.16667C2.90101 13.9583 1.875 12.9323 1.875 11.6667V9.16667C1.875 8.10697 2.59426 7.21527 3.57122 6.95312C3.88911 4.03299 6.72816 1.875 10 1.875C13.2718 1.875 16.1109 4.03299 16.4288 6.95312C17.4057 7.21527 18.125 8.10697 18.125 9.16667V11.6667C18.125 12.7293 17.4017 13.6231 16.4206 13.8824C16.1533 15.8087 14.4998 17.2917 12.5 17.2917H11.5455C11.2983 17.9025 10.6995 18.3333 10 18.3333C9.07953 18.3333 8.33333 17.5871 8.33333 16.6667C8.33333 15.7462 9.07953 15 10 15C10.6995 15 11.2983 15.4309 11.5455 16.0417H12.5C13.7807 16.0417 14.8537 15.1528 15.1359 13.9583H13.3333C12.9882 13.9583 12.7083 13.6785 12.7083 13.3333V7.5C12.7083 7.15482 12.9882 6.875 13.3333 6.875H15.1543C14.7967 4.81669 12.7011 3.125 10 3.125ZM4.16667 8.125C3.59137 8.125 3.125 8.59137 3.125 9.16667V11.6667C3.125 12.242 3.59137 12.7083 4.16667 12.7083H6.04167V8.125H4.16667ZM16.875 9.16667C16.875 8.59137 16.4086 8.125 15.8333 8.125H13.9583V12.7083H15.8333C16.4086 12.7083 16.875 12.242 16.875 11.6667V9.16667Z" fill="white"/>
</svg>
