<svg viewBox="0 0 20 20" fill="none" xmlns="http://www.w3.org/2000/svg">
<path fill-rule="evenodd" clip-rule="evenodd" d="M11.2982 4.61188C10.5727 3.91575 9.4273 3.91575 8.70183 4.61188L4.84646 8.31133C4.752 8.40197 4.68846 8.52004 4.66485 8.64881C4.20307 11.167 4.16898 13.745 4.56402 16.2746L4.65779 16.875H7.13817V11.6989C7.13817 11.3537 7.41799 11.0739 7.76317 11.0739H12.2369C12.582 11.0739 12.8619 11.3537 12.8619 11.6989V16.875H15.3422L15.436 16.2746C15.831 13.745 15.797 11.167 15.3352 8.6488C15.3116 8.52004 15.248 8.40197 15.1536 8.31133L11.2982 4.61188ZM7.83637 3.70995C9.04549 2.54973 10.9545 2.54973 12.1637 3.70995L16.019 7.40939C16.3028 7.68172 16.4937 8.03646 16.5647 8.42335C17.0518 11.0797 17.0877 13.7992 16.671 16.4675L16.5204 17.432C16.4581 17.8309 16.1145 18.125 15.7108 18.125H12.2369C11.8917 18.125 11.6119 17.8452 11.6119 17.5V12.3239H8.38817V17.5C8.38817 17.8452 8.10835 18.125 7.76317 18.125H4.28923C3.88549 18.125 3.54192 17.8309 3.47963 17.432L3.32899 16.4675C2.91228 13.7992 2.94824 11.0797 3.43535 8.42335C3.50629 8.03646 3.6972 7.68172 3.981 7.40939L7.83637 3.70995Z" fill="white"/>
</svg>
