         
                <svg class="phone" x="0px" y="0px"
                     viewBox="0 0 673 780" style="enable-background:new 0 0 673 780;" xml:space="preserve">
                <style type="text/css">
                    .st0{fill:none;stroke:#C4C4C4;stroke-width:2.23;stroke-linecap:round;stroke-miterlimit:10;}
                    .st1{fill:#F8F8F8;}
                    .st2{fill:#D9D9D9;}
                    .st3{fill-rule:evenodd;clip-rule:evenodd;fill:#3E3E3E;}
                    .st4{fill:#FFFFFF;}
                    .st5{fill:#7E00FD;}
                    .st6{fill-rule:evenodd;clip-rule:evenodd;}
                    .st7{fill:#FFFFFF;filter:url(#Adobe_OpacityMaskFilter);}
                    .st8{mask:url(#path-94-outside-1_650_322_00000165225616496789326570000001339334936672470417_);fill:#FFFFFF;}
                    .st9{fill:#FFFFFF;filter:url(#Adobe_OpacityMaskFilter_00000119094994285859874100000011093441398037457039_);}
                    .st10{mask:url(#path-96-outside-2_650_322_00000074424983384752340860000004024827741698168229_);fill:#FFFFFF;}
                    .st11{fill:#FFFFFF;filter:url(#Adobe_OpacityMaskFilter_00000034084047268451822760000010468709835953675920_);}
                    .st12{mask:url(#path-98-outside-3_650_322_00000060731228753389700330000014522725740344812709_);fill:#FFFFFF;}
                    .st13{fill:#FF2AAC;}
                    .st14{fill:none;stroke:#19223F;stroke-width:5.6082;stroke-linecap:round;stroke-miterlimit:10;}
                </style>
                <g class="flare2">
                    <path class="st0" d="M356.7,85v13.4"/>
                    <path class="st0" d="M363.4,91.7H350"/>
                    <path class="st0" d="M378,85v13.4"/>
                    <path class="st0" d="M384.7,91.7h-13.4"/>
                    <path class="st0" d="M399.2,85v13.4"/>
                    <path class="st0" d="M405.9,91.7h-13.4"/>
                    <path class="st0" d="M420.4,85v13.4"/>
                    <path class="st0" d="M427.1,91.7h-13.4"/>
                    <path class="st0" d="M441.6,85v13.4"/>
                    <path class="st0" d="M448.4,91.7h-13.4"/>
                    <path class="st0" d="M462.9,85v13.4"/>
                    <path class="st0" d="M469.6,91.7h-13.4"/>
                    <path class="st0" d="M484.1,85v13.4"/>
                    <path class="st0" d="M490.8,91.7h-13.4"/>
                    <path class="st0" d="M505.3,85v13.4"/>
                    <path class="st0" d="M512,91.7h-13.4"/>
                    <path class="st0" d="M356.7,104.1v13.4"/>
                    <path class="st0" d="M363.4,110.9H350"/>
                    <path class="st0" d="M378,104.1v13.4"/>
                    <path class="st0" d="M384.7,110.9h-13.4"/>
                    <path class="st0" d="M399.2,104.1v13.4"/>
                    <path class="st0" d="M405.9,110.9h-13.4"/>
                    <path class="st0" d="M420.4,104.1v13.4"/>
                    <path class="st0" d="M427.1,110.9h-13.4"/>
                    <path class="st0" d="M441.6,104.1v13.4"/>
                    <path class="st0" d="M448.4,110.9h-13.4"/>
                    <path class="st0" d="M462.9,104.1v13.4"/>
                    <path class="st0" d="M469.6,110.9h-13.4"/>
                    <path class="st0" d="M484.1,104.1v13.4"/>
                    <path class="st0" d="M490.8,110.9h-13.4"/>
                    <path class="st0" d="M505.3,104.1v13.4"/>
                    <path class="st0" d="M512,110.9h-13.4"/>
                    <path class="st0" d="M356.7,123.3v13.4"/>
                    <path class="st0" d="M363.4,130H350"/>
                    <path class="st0" d="M378,123.3v13.4"/>
                    <path class="st0" d="M384.7,130h-13.4"/>
                    <path class="st0" d="M399.2,123.3v13.4"/>
                    <path class="st0" d="M405.9,130h-13.4"/>
                    <path class="st0" d="M420.4,123.3v13.4"/>
                    <path class="st0" d="M427.1,130h-13.4"/>
                    <path class="st0" d="M441.6,123.3v13.4"/>
                    <path class="st0" d="M448.4,130h-13.4"/>
                    <path class="st0" d="M462.9,123.3v13.4"/>
                    <path class="st0" d="M469.6,130h-13.4"/>
                    <path class="st0" d="M484.1,123.3v13.4"/>
                    <path class="st0" d="M490.8,130h-13.4"/>
                    <path class="st0" d="M505.3,123.3v13.4"/>
                    <path class="st0" d="M512,130h-13.4"/>
                    <path class="st0" d="M356.7,142.4v13.4"/>
                    <path class="st0" d="M363.4,149.1H350"/>
                    <path class="st0" d="M378,142.4v13.4"/>
                    <path class="st0" d="M384.7,149.1h-13.4"/>
                    <path class="st0" d="M399.2,142.4v13.4"/>
                    <path class="st0" d="M405.9,149.1h-13.4"/>
                    <path class="st0" d="M420.4,142.4v13.4"/>
                    <path class="st0" d="M427.1,149.1h-13.4"/>
                    <path class="st0" d="M441.6,142.4v13.4"/>
                    <path class="st0" d="M448.4,149.1h-13.4"/>
                    <path class="st0" d="M462.9,142.4v13.4"/>
                    <path class="st0" d="M469.6,149.1h-13.4"/>
                    <path class="st0" d="M484.1,142.4v13.4"/>
                    <path class="st0" d="M490.8,149.1h-13.4"/>
                    <path class="st0" d="M505.3,142.4v13.4"/>
                    <path class="st0" d="M512,149.1h-13.4"/>
                    <path class="st0" d="M356.7,161.6V175"/>
                    <path class="st0" d="M363.4,168.3H350"/>
                    <path class="st0" d="M378,161.6V175"/>
                    <path class="st0" d="M384.7,168.3h-13.4"/>
                    <path class="st0" d="M399.2,161.6V175"/>
                    <path class="st0" d="M405.9,168.3h-13.4"/>
                    <path class="st0" d="M420.4,161.6V175"/>
                    <path class="st0" d="M427.1,168.3h-13.4"/>
                    <path class="st0" d="M441.6,161.6V175"/>
                    <path class="st0" d="M448.4,168.3h-13.4"/>
                    <path class="st0" d="M462.9,161.6V175"/>
                    <path class="st0" d="M469.6,168.3h-13.4"/>
                    <path class="st0" d="M484.1,161.6V175"/>
                    <path class="st0" d="M490.8,168.3h-13.4"/>
                    <path class="st0" d="M505.3,161.6V175"/>
                    <path class="st0" d="M512,168.3h-13.4"/>
                </g>
                <g class="phone">
                    <path class="st1" d="M39.2,182.9l267-155.5c13.4-7.8,30.5-3.3,38.3,10.1l303.5,521c7.8,13.4,3.3,30.5-10.1,38.3l-267,155.5
                        c-13.4,7.8-30.5,3.3-38.3-10.1l-303.5-521C21.3,207.8,25.9,190.7,39.2,182.9z"/>
                    <path class="st2" d="M156.8,213.9l119.2-69.5c6.2-3.6,14.2-1.5,17.8,4.7l0,0c3.6,6.2,1.5,14.2-4.7,17.8l-119.2,69.5
                        c-6.2,3.6-14.2,1.5-17.8-4.7l0,0C148.5,225.5,150.6,217.5,156.8,213.9z"/>
                    <path class="st2" d="M223.4,224.9l29.4-17.1c6.2-3.6,14.2-1.5,17.8,4.7v0c3.6,6.2,1.5,14.2-4.7,17.8l-29.4,17.1
                        c-6.2,3.6-14.2,1.5-17.8-4.7v0C215.1,236.5,217.2,228.5,223.4,224.9z"/>
                    <path class="st3" d="M347.6,28.1c-8.7-15.1-27.9-20.3-42.8-11.7L27,177.1c-14.9,8.6-19.9,27.9-11.2,43l309,531.1
                        c8.7,15.1,27.9,20.3,42.8,11.7l277.8-160.7c14.9-8.6,19.9-27.9,11.2-43L347.6,28.1z M338.9,42c-6.8-11.7-21.7-15.8-33.3-9.1
                        l-49.4,28.6l8.6,14.8c3.4,5.9,1.4,13.3-4.4,16.7l-144.9,83.8c-5.8,3.4-13.3,1.3-16.7-4.5l-8.6-14.8L40.9,186
                        c-11.6,6.7-15.5,21.7-8.7,33.4l301.3,517.8c6.8,11.7,21.7,15.8,33.3,9.1l264.7-153.1c11.6-6.7,15.5-21.7,8.7-33.4L527.7,366.5
                        L338.9,42z"/>
                    <path class="st2" d="M134.6,328.7l252.3-147c6.7-3.9,15.3-1.6,19.1,5.1l70.5,121c3.9,6.7,1.6,15.3-5.1,19.1l-252.3,147
                        c-6.7,3.9-15.3,1.6-19.1-5.1l-70.5-121C125.6,341.2,127.9,332.6,134.6,328.7z"/>
                    <path class="st2" d="M426.6,544L426.6,544c18.6-10.8,42.5-4.5,53.3,14.1l0,0c10.8,18.6,4.5,42.5-14.1,53.3l0,0
                        c-18.6,10.8-42.5,4.5-53.3-14.1l0,0C401.7,578.7,408,554.8,426.6,544z"/>
                    <path class="st2" d="M517.4,513.1L517.4,513.1c9.5-5.6,21.8-2.3,27.3,7.2l0,0c5.6,9.5,2.3,21.8-7.2,27.3l0,0
                        c-9.5,5.6-21.8,2.3-27.3-7.2l0,0C504.6,530.9,507.9,518.6,517.4,513.1z"/>
                    <path class="st2" d="M355,607.7L355,607.7c9.5-5.6,21.8-2.3,27.3,7.2l0,0c5.6,9.5,2.3,21.8-7.2,27.3l0,0
                        c-9.5,5.6-21.8,2.3-27.3-7.2l0,0C342.2,625.5,345.4,613.2,355,607.7z"/>
                </g>
                <g class="recording">
                    <path class="st4" d="M63,243h278c28.2,0,51,22.8,51,51l0,0c0,28.2-22.8,51-51,51H63c-28.2,0-51-22.8-51-51l0,0
                        C12,265.8,34.8,243,63,243z"/>
                    <circle class="st5" cx="63" cy="295" r="36"/>
                    <path d="M152,295.8c0.3,0.5,0.5,0.9,0.5,1.4c0,0.6-0.2,1.1-0.7,1.5c-0.5,0.4-1,0.6-1.7,0.6c-0.4,0-0.8-0.1-1.2-0.3
                        c-0.4-0.2-0.7-0.5-0.9-0.9l-5.2-7.9c-0.5-0.8-1.1-1.4-1.7-1.8c-0.6-0.3-1.3-0.5-2.3-0.5h-3.8v8.7c0,0.8-0.2,1.4-0.7,1.9
                        c-0.4,0.4-1,0.7-1.8,0.7c-0.8,0-1.4-0.2-1.8-0.7c-0.4-0.5-0.7-1.1-0.7-1.9v-22.8c0-0.8,0.2-1.3,0.6-1.8c0.4-0.4,1-0.6,1.8-0.6h9.8
                        c3.1,0,5.5,0.7,7.1,2.1c1.6,1.4,2.5,3.4,2.5,6c0,2.1-0.6,3.9-1.8,5.3c-1.2,1.4-2.9,2.2-5.1,2.6c0.8,0.2,1.4,0.5,2,1
                        c0.6,0.5,1.1,1.1,1.7,2L152,295.8z M141.4,284c1.9,0,3.3-0.4,4.2-1.1c0.9-0.7,1.3-1.8,1.3-3.3c0-1.5-0.4-2.6-1.3-3.3
                        c-0.9-0.7-2.3-1.1-4.2-1.1h-6.6v8.7H141.4z M171.7,293.7c0.4,0,0.8,0.2,1.1,0.5c0.3,0.3,0.4,0.8,0.4,1.4c0,0.8-0.5,1.5-1.4,2
                        c-0.9,0.5-1.9,0.9-3,1.2c-1.1,0.3-2.2,0.4-3.2,0.4c-3.1,0-5.5-0.9-7.3-2.7c-1.8-1.8-2.7-4.2-2.7-7.3c0-2,0.4-3.7,1.2-5.2
                        s1.9-2.7,3.3-3.5c1.4-0.8,3-1.2,4.8-1.2c1.7,0,3.2,0.4,4.5,1.1s2.3,1.8,3,3.2c0.7,1.4,1.1,3,1.1,4.9c0,1.1-0.5,1.7-1.5,1.7h-11.5
                        c0.2,1.8,0.7,3.1,1.5,4c0.9,0.8,2.1,1.2,3.7,1.2c0.8,0,1.6-0.1,2.2-0.3c0.6-0.2,1.4-0.5,2.2-0.9
                        C170.8,293.9,171.4,293.7,171.7,293.7z M165,282.8c-1.3,0-2.4,0.4-3.2,1.2c-0.8,0.8-1.2,2-1.4,3.6h8.8c-0.1-1.6-0.4-2.8-1.2-3.6
                        C167.3,283.2,166.3,282.8,165,282.8z M185.8,299.2c-1.9,0-3.6-0.4-5-1.2c-1.4-0.8-2.5-1.9-3.3-3.4c-0.8-1.5-1.2-3.2-1.2-5.2
                        c0-2,0.4-3.7,1.2-5.2c0.8-1.5,2-2.7,3.5-3.5c1.5-0.8,3.2-1.2,5.1-1.2c1,0,2,0.1,3,0.4c1,0.3,1.9,0.7,2.7,1.2
                        c0.8,0.5,1.2,1.2,1.2,2.1c0,0.6-0.1,1-0.4,1.4c-0.3,0.3-0.6,0.5-1.1,0.5c-0.3,0-0.6-0.1-0.9-0.2c-0.3-0.1-0.6-0.3-0.9-0.5
                        c-0.6-0.3-1.1-0.6-1.6-0.8c-0.5-0.2-1.1-0.3-1.8-0.3c-1.6,0-2.9,0.5-3.7,1.6c-0.9,1-1.3,2.5-1.3,4.5c0,1.9,0.4,3.5,1.3,4.5
                        c0.9,1,2.1,1.6,3.7,1.6c0.6,0,1.2-0.1,1.7-0.3c0.5-0.2,1.1-0.5,1.7-0.8c0.4-0.2,0.7-0.4,1-0.5c0.3-0.1,0.6-0.2,0.9-0.2
                        c0.4,0,0.8,0.2,1.1,0.5c0.3,0.4,0.4,0.8,0.4,1.4c0,0.4-0.1,0.8-0.3,1.2c-0.2,0.3-0.5,0.6-0.9,0.9c-0.8,0.5-1.7,0.9-2.8,1.2
                        C188,299.1,187,299.2,185.8,299.2z M205.1,299.2c-1.9,0-3.7-0.4-5.1-1.2c-1.5-0.8-2.6-2-3.4-3.5c-0.8-1.5-1.2-3.3-1.2-5.3
                        c0-2,0.4-3.7,1.2-5.2c0.8-1.5,1.9-2.7,3.4-3.5c1.5-0.8,3.2-1.2,5.1-1.2c2,0,3.7,0.4,5.1,1.2c1.5,0.8,2.6,2,3.4,3.5
                        c0.8,1.5,1.2,3.2,1.2,5.2c0,2-0.4,3.8-1.2,5.3c-0.8,1.5-1.9,2.7-3.4,3.5C208.8,298.8,207.1,299.2,205.1,299.2z M205.1,295.5
                        c1.6,0,2.8-0.5,3.6-1.6s1.2-2.6,1.2-4.6c0-2-0.4-3.5-1.2-4.6c-0.8-1.1-2-1.6-3.6-1.6c-1.6,0-2.8,0.5-3.6,1.6
                        c-0.8,1-1.2,2.6-1.2,4.6c0,2,0.4,3.6,1.2,4.6S203.5,295.5,205.1,295.5z M229.5,279.5c0.7-0.1,1.2,0.1,1.6,0.4
                        c0.4,0.3,0.6,0.8,0.6,1.5c0,0.7-0.2,1.2-0.5,1.6c-0.3,0.3-0.9,0.6-1.8,0.7l-1.2,0.1c-1.5,0.2-2.7,0.7-3.4,1.6
                        c-0.7,0.9-1.1,2-1.1,3.3v8.2c0,0.8-0.2,1.3-0.7,1.8c-0.5,0.4-1.1,0.6-1.8,0.6s-1.3-0.2-1.8-0.6c-0.4-0.4-0.7-1-0.7-1.8v-15.1
                        c0-0.7,0.2-1.3,0.7-1.7c0.5-0.4,1-0.6,1.7-0.6s1.2,0.2,1.6,0.6c0.4,0.4,0.6,0.9,0.6,1.6v1.6c0.5-1.1,1.2-2,2.2-2.7
                        c1-0.6,2.1-1,3.3-1.1L229.5,279.5z M249.3,271.2c0.7,0,1.3,0.2,1.8,0.6c0.5,0.4,0.7,1,0.7,1.6v23.3c0,0.7-0.2,1.3-0.7,1.7
                        c-0.4,0.4-1,0.6-1.8,0.6c-0.7,0-1.3-0.2-1.8-0.6c-0.4-0.4-0.7-1-0.7-1.7v-1c-0.6,1.1-1.4,1.9-2.5,2.5c-1.1,0.6-2.3,0.9-3.7,0.9
                        c-1.6,0-3.1-0.4-4.4-1.2c-1.3-0.8-2.3-2-3-3.5c-0.7-1.5-1.1-3.3-1.1-5.3s0.4-3.7,1.1-5.2c0.7-1.5,1.7-2.6,3-3.4s2.7-1.2,4.4-1.2
                        c1.4,0,2.6,0.3,3.7,0.9c1.1,0.6,1.9,1.4,2.5,2.4v-9.2c0-0.6,0.2-1.2,0.6-1.6C248,271.5,248.6,271.2,249.3,271.2z M242.1,295.5
                        c1.6,0,2.8-0.5,3.6-1.6c0.9-1.1,1.3-2.6,1.3-4.6c0-2-0.4-3.5-1.3-4.5c-0.8-1.1-2-1.6-3.5-1.6c-1.6,0-2.8,0.5-3.6,1.6
                        c-0.9,1-1.3,2.5-1.3,4.5c0,2,0.4,3.5,1.3,4.6C239.4,294.9,240.6,295.5,242.1,295.5z M259.2,299.2c-0.7,0-1.3-0.2-1.8-0.6
                        c-0.4-0.4-0.7-1-0.7-1.8v-15.1c0-0.8,0.2-1.3,0.7-1.7c0.5-0.4,1.1-0.6,1.8-0.6s1.3,0.2,1.8,0.6c0.5,0.4,0.7,1,0.7,1.7v15.1
                        c0,0.8-0.2,1.3-0.7,1.8C260.5,299,259.9,299.2,259.2,299.2z M259.2,276c-0.9,0-1.6-0.2-2.1-0.7c-0.5-0.5-0.8-1.1-0.8-1.9
                        s0.3-1.4,0.8-1.9c0.5-0.5,1.2-0.7,2.1-0.7c0.9,0,1.5,0.2,2.1,0.7c0.5,0.5,0.8,1.1,0.8,1.9s-0.3,1.4-0.8,1.9
                        C260.8,275.8,260.1,276,259.2,276z M277.8,279.4c2.3,0,4,0.6,5.1,2c1.1,1.3,1.7,3.3,1.7,5.9v9.6c0,0.7-0.2,1.3-0.7,1.7
                        c-0.4,0.4-1,0.6-1.8,0.6s-1.4-0.2-1.8-0.6c-0.4-0.4-0.7-1-0.7-1.7v-9.3c0-1.5-0.3-2.6-0.9-3.2c-0.5-0.7-1.4-1-2.6-1
                        c-1.4,0-2.5,0.4-3.4,1.3c-0.8,0.9-1.2,2.1-1.2,3.5v8.7c0,0.7-0.2,1.3-0.7,1.7c-0.4,0.4-1,0.6-1.8,0.6s-1.4-0.2-1.8-0.6
                        c-0.4-0.4-0.6-1-0.6-1.7v-15.1c0-0.7,0.2-1.2,0.7-1.6c0.4-0.4,1-0.6,1.8-0.6c0.7,0,1.2,0.2,1.6,0.6c0.4,0.4,0.7,0.9,0.7,1.6v1.1
                        c0.6-1.1,1.5-1.9,2.6-2.5C275.2,279.7,276.4,279.4,277.8,279.4z M305.7,279.5c0.7,0,1.3,0.2,1.8,0.6c0.4,0.4,0.7,1,0.7,1.7v15.4
                        c0,3-0.8,5.3-2.5,6.8s-4.1,2.3-7.4,2.3c-2.8,0-5.2-0.5-7.1-1.6c-1-0.6-1.4-1.3-1.4-2.1c0-0.6,0.1-1,0.4-1.4
                        c0.3-0.3,0.7-0.5,1.1-0.5c0.2,0,0.5,0.1,0.9,0.2c0.3,0.1,0.7,0.3,1.1,0.4c0.9,0.4,1.8,0.7,2.5,0.9c0.8,0.2,1.6,0.3,2.6,0.3
                        c3.4,0,5.1-1.7,5.1-5V295c-0.6,1.1-1.4,1.9-2.5,2.5c-1.1,0.6-2.3,0.9-3.7,0.9c-1.7,0-3.1-0.4-4.4-1.2c-1.3-0.8-2.3-1.9-3-3.4
                        s-1.1-3.1-1.1-5c0-1.9,0.4-3.5,1.1-5c0.7-1.5,1.7-2.6,3-3.4c1.3-0.8,2.8-1.2,4.4-1.2c1.4,0,2.7,0.3,3.7,0.9
                        c1.1,0.6,1.9,1.4,2.5,2.5v-1c0-0.7,0.2-1.2,0.7-1.6C304.4,279.7,305,279.5,305.7,279.5z M298.3,294.6c1.6,0,2.8-0.5,3.6-1.5
                        c0.9-1,1.3-2.4,1.3-4.2c0-1.8-0.4-3.2-1.3-4.2c-0.9-1-2.1-1.5-3.6-1.5c-1.5,0-2.7,0.5-3.6,1.5c-0.9,1-1.3,2.4-1.3,4.2
                        c0,1.8,0.4,3.2,1.3,4.2S296.8,294.6,298.3,294.6z M315.4,299.2c-0.8,0-1.5-0.3-2.1-0.8c-0.5-0.6-0.8-1.3-0.8-2.1s0.3-1.5,0.8-2.1
                        c0.5-0.6,1.2-0.9,2.1-0.9s1.5,0.3,2.1,0.9c0.5,0.5,0.8,1.2,0.8,2.1s-0.3,1.5-0.8,2.1C317,298.9,316.3,299.2,315.4,299.2z
                         M325.1,299.2c-0.8,0-1.5-0.3-2.1-0.8c-0.5-0.6-0.8-1.3-0.8-2.1s0.3-1.5,0.8-2.1c0.5-0.6,1.2-0.9,2.1-0.9s1.5,0.3,2.1,0.9
                        c0.5,0.5,0.8,1.2,0.8,2.1s-0.3,1.5-0.8,2.1C326.6,298.9,326,299.2,325.1,299.2z"/>
                    <path d="M159.1,317.5c0.8,0.2,1.4,0.6,1.7,1.1c0.4,0.5,0.6,1.2,0.6,2c0,1.1-0.4,2-1.1,2.6c-0.7,0.6-1.8,1-3,1
                        c-0.8,0-1.5-0.1-2.2-0.4c-0.7-0.3-1.3-0.6-1.8-1.1c-0.2-0.2-0.3-0.4-0.3-0.6c0-0.2,0-0.3,0.1-0.4c0.1-0.1,0.2-0.2,0.3-0.2
                        c0.2,0,0.3,0.1,0.5,0.2c0.6,0.4,1.1,0.8,1.6,1s1.1,0.3,1.7,0.3c0.9,0,1.6-0.2,2-0.6c0.5-0.4,0.7-1,0.7-1.8c0-1.5-1-2.3-2.9-2.3h-1
                        c-0.2,0-0.3-0.1-0.5-0.2c-0.1-0.1-0.2-0.3-0.2-0.5s0.1-0.3,0.2-0.4c0.1-0.1,0.3-0.2,0.5-0.2h0.7c0.9,0,1.7-0.2,2.2-0.6
                        c0.5-0.4,0.8-1,0.8-1.8c0-0.7-0.2-1.2-0.6-1.6c-0.4-0.4-1-0.6-1.7-0.6c-0.6,0-1.1,0.1-1.6,0.3c-0.5,0.2-1.1,0.5-1.6,1
                        c-0.2,0.1-0.3,0.2-0.5,0.2c-0.1,0-0.2-0.1-0.3-0.2c-0.1-0.1-0.1-0.3-0.1-0.5c0-0.2,0.1-0.4,0.3-0.6c0.5-0.5,1.1-0.8,1.8-1.1
                        c0.7-0.3,1.4-0.4,2.2-0.4c1.2,0,2.1,0.3,2.7,0.9c0.7,0.6,1,1.4,1,2.3c0,0.7-0.2,1.4-0.6,1.9C160.2,316.9,159.7,317.2,159.1,317.5z
                         M164.9,317.1c-0.3,0-0.5-0.1-0.7-0.3c-0.2-0.2-0.3-0.4-0.3-0.7c0-0.3,0.1-0.5,0.3-0.7c0.2-0.2,0.4-0.3,0.7-0.3
                        c0.3,0,0.5,0.1,0.7,0.3c0.2,0.2,0.3,0.4,0.3,0.7c0,0.3-0.1,0.5-0.3,0.7C165.4,317,165.1,317.1,164.9,317.1z M164.9,324.1
                        c-0.3,0-0.5-0.1-0.7-0.3c-0.2-0.2-0.3-0.4-0.3-0.7s0.1-0.5,0.3-0.7c0.2-0.2,0.4-0.3,0.7-0.3c0.3,0,0.5,0.1,0.7,0.3
                        c0.2,0.2,0.3,0.4,0.3,0.7s-0.1,0.5-0.3,0.7C165.4,324,165.1,324.1,164.9,324.1z M172.3,324.1c-1.5,0-2.6-0.6-3.3-1.7
                        s-1.1-2.7-1.1-4.8c0-2.1,0.4-3.7,1.1-4.8s1.9-1.7,3.3-1.7s2.6,0.6,3.3,1.7c0.8,1.1,1.1,2.7,1.1,4.8s-0.4,3.7-1.1,4.8
                        S173.8,324.1,172.3,324.1z M172.3,322.9c1,0,1.8-0.4,2.2-1.3c0.5-0.9,0.7-2.2,0.7-4c0-1.8-0.2-3.1-0.7-4c-0.5-0.8-1.2-1.3-2.2-1.3
                        c-1,0-1.8,0.4-2.2,1.3c-0.5,0.8-0.7,2.2-0.7,4c0,1.8,0.2,3.1,0.7,4C170.6,322.5,171.3,322.9,172.3,322.9z M185.3,317.5
                        c0.7,0.2,1.3,0.6,1.7,1.2c0.4,0.6,0.6,1.2,0.6,2c0,1.1-0.4,2-1.2,2.6c-0.8,0.6-1.9,0.9-3.4,0.9s-2.6-0.3-3.4-0.9
                        c-0.8-0.6-1.2-1.5-1.2-2.6c0-0.8,0.2-1.4,0.6-2c0.4-0.6,1-0.9,1.7-1.2c-0.6-0.2-1.1-0.6-1.5-1.1c-0.4-0.5-0.6-1.1-0.6-1.8
                        c0-1,0.4-1.8,1.1-2.4c0.8-0.6,1.8-0.9,3.1-0.9s2.4,0.3,3.1,0.9c0.8,0.6,1.1,1.4,1.1,2.4c0,0.7-0.2,1.3-0.6,1.8
                        C186.4,316.9,185.9,317.3,185.3,317.5z M180.3,314.6c0,0.7,0.2,1.3,0.7,1.7c0.5,0.4,1.2,0.6,2.1,0.6s1.6-0.2,2.1-0.6
                        c0.5-0.4,0.7-1,0.7-1.7c0-0.7-0.2-1.3-0.7-1.7c-0.5-0.4-1.2-0.6-2.1-0.6s-1.6,0.2-2.1,0.6C180.5,313.4,180.3,313.9,180.3,314.6z
                         M183.1,322.9c2.1,0,3.1-0.8,3.1-2.4c0-1.6-1-2.4-3.1-2.4s-3.1,0.8-3.1,2.4C180,322.1,181,322.9,183.1,322.9z"/>
                    <path d="M138.2,314.1c0-0.4-0.3-0.7-0.7-0.7s-0.7,0.3-0.7,0.7v4.4c0,0.2,0.1,0.4,0.3,0.6l2.6,1.6c0.3,0.2,0.7,0.1,0.9-0.2
                        c0.2-0.3,0.1-0.7-0.2-0.9l-2.3-1.4V314.1z"/>
                    <path class="st6" d="M137.5,309.8c-4.2,0-7.7,3.4-7.7,7.7s3.4,7.7,7.7,7.7s7.7-3.4,7.7-7.7S141.7,309.8,137.5,309.8z M131.2,317.5
                        c0-3.5,2.8-6.3,6.3-6.3s6.3,2.8,6.3,6.3s-2.8,6.3-6.3,6.3S131.2,321,131.2,317.5z"/>
                </g>
                <g class="flare">
                    <defs>
                        <filter id="Adobe_OpacityMaskFilter" filterUnits="userSpaceOnUse" x="459.5" y="357.7" width="141.8" height="42.8">
                            <feColorMatrix  type="matrix" values="1 0 0 0 0  0 1 0 0 0  0 0 1 0 0  0 0 0 1 0"/>
                        </filter>
                    </defs>
                    
                        <mask maskUnits="userSpaceOnUse" x="459.5" y="357.7" width="141.8" height="42.8" id="path-94-outside-1_650_322_00000165225616496789326570000001339334936672470417_">
                        <rect x="459.1" y="357.3" class="st7" width="143" height="44"/>
                        <path d="M474.1,379.1c10.5-5.2,22.4-7.5,34-6.7c11.2,0.7,21.3,6.4,31.4,10.8c15.7,4.5,32.5,3.4,47.1-4.1"/>
                    </mask>
                    <path class="st8" d="M467.5,366.1c-7.2,3.6-10.1,12.4-6.5,19.6c3.6,7.2,12.4,10.1,19.6,6.5L467.5,366.1z M508.1,372.4l1-14.6l0,0
                        l0,0L508.1,372.4z M539.5,383.3l-5.9,13.4l0.9,0.4l1,0.3L539.5,383.3z M593.3,392.1c7.2-3.7,10-12.5,6.3-19.7
                        c-3.7-7.2-12.5-10-19.7-6.3L593.3,392.1z M480.6,392.2c8-4,17.4-5.8,26.5-5.2l1.9-29.2c-14-0.9-28.6,1.8-41.5,8.2L480.6,392.2z
                         M507.1,387c7.9,0.5,14.6,4.3,26.4,9.6l11.9-26.7c-8.3-3.7-21.8-11.1-36.4-12.1L507.1,387z M535.5,397.3
                        c18.9,5.4,39.6,4.2,57.8-5.2l-13.3-26c-11,5.6-24,6.6-36.4,3.1L535.5,397.3z"/>
                    <path class="st4" d="M559,376.5l-26.5-4.5h-7l-1,7c6.7,4.5,20.2,13.5,21,13.5s10.7-3.7,15.5-5.5L559,376.5z"/>
                    <defs>
                        
                            <filter id="Adobe_OpacityMaskFilter_00000131334970821604292100000015556734815680706446_" filterUnits="userSpaceOnUse" x="459.5" y="373.4" width="141.8" height="42.9">
                            <feColorMatrix  type="matrix" values="1 0 0 0 0  0 1 0 0 0  0 0 1 0 0  0 0 0 1 0"/>
                        </filter>
                    </defs>
                    
                        <mask maskUnits="userSpaceOnUse" x="459.5" y="373.4" width="141.8" height="42.9" id="path-96-outside-2_650_322_00000074424983384752340860000004024827741698168229_">
                        
                            <rect x="459.1" y="373" style="fill:#FFFFFF;filter:url(#Adobe_OpacityMaskFilter_00000131334970821604292100000015556734815680706446_);" width="143" height="44"/>
                        <path d="M474.1,394.8c10.1-4.5,20.9-7.5,32.2-6.7c10.8,0.7,20.6,4.9,29.9,9.7c16.5,6,35.1,4.9,50.5-3"/>
                    </mask>
                    <path class="st10" d="M468.1,381.5c-7.4,3.3-10.7,11.9-7.4,19.3c3.3,7.4,11.9,10.7,19.3,7.4L468.1,381.5z M506.2,388.1l1-14.6l0,0
                        l0,0L506.2,388.1z M536.1,397.8l-6.7,13l0.8,0.4l0.9,0.3L536.1,397.8z M593.3,407.9c7.2-3.7,10-12.5,6.3-19.7
                        c-3.7-7.2-12.5-10-19.7-6.3L593.3,407.9z M480,408.2c8.9-3.9,17.2-6,25.2-5.5l1.9-29.2c-14.4-1-27.7,2.9-39.1,8L480,408.2z
                         M505.2,402.7c7.8,0.5,15.4,3.5,24.2,8.1l13.5-25.9c-9.9-5.1-21.8-10.4-35.6-11.3L505.2,402.7z M531.2,411.6
                        c20.2,7.3,43.1,6,62.1-3.7l-13.3-26c-11.7,6-26.1,6.9-38.8,2.3L531.2,411.6z"/>
                    <defs>
                        
                            <filter id="Adobe_OpacityMaskFilter_00000052083123242267743490000002220846833864962479_" filterUnits="userSpaceOnUse" x="459.5" y="389.3" width="141.8" height="43">
                            <feColorMatrix  type="matrix" values="1 0 0 0 0  0 1 0 0 0  0 0 1 0 0  0 0 0 1 0"/>
                        </filter>
                    </defs>
                    
                        <mask maskUnits="userSpaceOnUse" x="459.5" y="389.3" width="141.8" height="43" id="path-98-outside-3_650_322_00000060731228753389700330000014522725740344812709_">
                        
                            <rect x="459.1" y="388.9" style="fill:#FFFFFF;filter:url(#Adobe_OpacityMaskFilter_00000052083123242267743490000002220846833864962479_);" width="143" height="44"/>
                        <path d="M474.1,410.9c11.6-6,24.7-8.2,37.8-6.4c9.7,1.5,17.6,6,26.2,9.7c15.7,6,33.6,3.7,48.6-3.4"/>
                    </mask>
                    <path class="st12" d="M467.4,397.9c-7.2,3.7-10,12.5-6.3,19.7c3.7,7.2,12.5,10,19.7,6.3L467.4,397.9z M511.8,404.6l2.2-14.4l-0.1,0
                        l-0.1,0L511.8,404.6z M538,414.3l-5.8,13.4l0.3,0.1l0.3,0.1L538,414.3z M592.9,424.1c7.3-3.5,10.4-12.2,6.9-19.5
                        c-3.5-7.3-12.2-10.4-19.5-6.9L592.9,424.1z M480.8,423.9c8.9-4.6,18.9-6.3,29-4.9l4.1-28.9c-16.1-2.3-32.2,0.5-46.5,7.8
                        L480.8,423.9z M509.6,419c7.2,1.1,12.2,4.2,22.6,8.7l11.7-26.8c-6.8-3-17.6-8.9-29.8-10.8L509.6,419z M532.8,427.9
                        c20.3,7.7,42.4,4.6,60.1-3.8l-12.5-26.4c-12.2,5.8-26,7.2-37.1,2.9L532.8,427.9z"/>
                    <path class="st13" d="M446,447.6l12.8-95.6l76.3,58.9L446,447.6z"/>
                    <path class="st14" d="M474.1,379.1c10.5-5.2,22.4-7.5,34-6.7c11.2,0.7,21.3,6.4,31.4,10.8c15.7,4.5,32.5,3.4,47.1-4.1"/>
                    <path class="st14" d="M474.1,394.8c10.1-4.5,20.9-7.5,32.2-6.7c10.8,0.7,20.6,4.9,29.9,9.7c16.5,6,35.1,4.9,50.5-3"/>
                    <path class="st14" d="M474.1,410.9c11.6-6,24.7-8.2,37.8-6.4c9.7,1.5,17.6,6,26.2,9.7c15.7,6,33.6,3.7,48.6-3.4"/>
                </g>
                </svg>