<svg width="209" height="62" viewBox="0 0 209 62" fill="none" xmlns="http://www.w3.org/2000/svg">
<rect x="0.5" y="0.5" width="208" height="61" rx="4.5" fill="white"/>
<path d="M105.485 33.7142C101.843 33.7142 98.8755 36.4872 98.8755 40.3064C98.8755 44.1023 101.843 46.8985 105.485 46.8985C109.127 46.8985 112.095 44.1023 112.095 40.3064C112.094 36.4872 109.126 33.7142 105.485 33.7142ZM105.485 44.3038C103.489 44.3038 101.769 42.6562 101.769 40.3079C101.769 37.9349 103.491 36.312 105.485 36.312C107.48 36.312 109.2 37.9349 109.2 40.3079C109.2 42.6546 107.48 44.3038 105.485 44.3038ZM91.0651 33.7142C87.4239 33.7142 84.4561 36.4872 84.4561 40.3064C84.4561 44.1023 87.4239 46.8985 91.0651 46.8985C94.7079 46.8985 97.6757 44.1023 97.6757 40.3064C97.6757 36.4872 94.7079 33.7142 91.0651 33.7142ZM91.0651 44.3038C89.0696 44.3038 87.3496 42.6562 87.3496 40.3079C87.3496 37.9349 89.0711 36.312 91.0651 36.312C93.0607 36.312 94.7807 37.9349 94.7807 40.3079C94.7822 42.6546 93.0607 44.3038 91.0651 44.3038ZM73.9148 35.7385V38.5347H80.5997C80.3999 40.108 79.8767 41.2565 79.0778 42.0548C78.1056 43.0282 76.5838 44.1023 73.9148 44.1023C69.7998 44.1023 66.5827 40.7807 66.5827 36.6608C66.5827 32.5409 69.7998 29.2192 73.9148 29.2192C76.1348 29.2192 77.7557 30.0934 78.9524 31.2172L80.9232 29.244C79.2512 27.646 77.0327 26.423 73.9148 26.423C68.2779 26.423 63.5391 31.0172 63.5391 36.6608C63.5391 42.3043 68.2779 46.8985 73.9148 46.8985C76.9569 46.8985 79.2528 45.8988 81.0471 44.0264C82.8925 42.1788 83.4668 39.581 83.4668 37.4838C83.4668 36.8359 83.4173 36.2361 83.3167 35.737H73.9148V35.7385ZM144.058 37.9101C143.51 36.4376 141.838 33.7142 138.421 33.7142C135.029 33.7142 132.21 36.3864 132.21 40.3064C132.21 44.0016 135.005 46.8985 138.745 46.8985C141.762 46.8985 143.509 45.0509 144.233 43.9768L141.988 42.4779C141.241 43.5769 140.217 44.3007 138.745 44.3007C137.274 44.3007 136.226 43.6265 135.553 42.3028L144.357 38.6572L144.058 37.9101ZM135.079 40.108C135.005 37.5598 137.05 36.2624 138.522 36.2624C139.669 36.2624 140.641 36.8375 140.967 37.6605L135.079 40.108ZM127.922 46.5002H130.814V27.1236H127.922V46.5002ZM123.181 35.1883H123.082C122.434 34.4133 121.186 33.7142 119.616 33.7142C116.323 33.7142 113.306 36.6112 113.306 40.3327C113.306 44.0279 116.323 46.9001 119.616 46.9001C121.187 46.9001 122.434 46.201 123.082 45.4028H123.181V46.3514C123.181 48.8732 121.835 50.2217 119.666 50.2217C117.895 50.2217 116.797 48.9492 116.348 47.875L113.829 48.9244C114.552 50.6712 116.472 52.8195 119.666 52.8195C123.058 52.8195 125.926 50.8216 125.926 45.9515V34.1157H123.183V35.1883H123.181ZM119.865 44.3038C117.87 44.3038 116.199 42.6298 116.199 40.3327C116.199 38.0093 117.87 36.312 119.865 36.312C121.835 36.312 123.381 38.0093 123.381 40.3327C123.381 42.6298 121.835 44.3038 119.865 44.3038ZM157.611 27.1236H150.689V46.5002H153.576V39.1594H157.609C160.811 39.1594 163.96 36.839 163.96 33.1423C163.96 29.4455 160.812 27.1236 157.611 27.1236ZM157.685 36.4624H153.576V29.8206H157.685C159.845 29.8206 161.071 31.6109 161.071 33.1423C161.071 34.6427 159.845 36.4624 157.685 36.4624ZM175.538 33.6801C173.447 33.6801 171.281 34.6024 170.385 36.6468L172.948 37.7179C173.496 36.6468 174.518 36.2965 175.588 36.2965C177.082 36.2965 178.601 37.194 178.625 38.7889V38.9889C178.102 38.6897 176.981 38.2418 175.613 38.2418C172.849 38.2418 170.035 39.7623 170.035 42.6035C170.035 45.1966 172.301 46.866 174.84 46.866C176.781 46.866 177.853 45.9933 178.525 44.9703H178.624V46.4661H181.414V39.0369C181.415 35.599 178.848 33.6801 175.538 33.6801ZM175.188 44.2992C174.244 44.2992 172.923 43.8249 172.923 42.6531C172.923 41.1573 174.568 40.5838 175.987 40.5838C177.255 40.5838 177.854 40.8582 178.625 41.2317C178.401 43.0282 176.857 44.2992 175.188 44.2992ZM191.572 34.1033L188.261 42.5043H188.162L184.725 34.1033H181.613L186.767 45.8445L183.829 52.3762H186.841L194.785 34.1033H191.572ZM165.554 46.5002H168.442V27.1236H165.554V46.5002Z" fill="black"/>
<path d="M73.4102 15.8766C73.4102 17.1755 73.0262 18.2093 72.2568 18.9812C71.3836 19.8988 70.2442 20.3576 68.8447 20.3576C67.504 20.3576 66.363 19.8926 65.4264 18.9626C64.4882 18.0311 64.0191 16.8779 64.0191 15.5015C64.0191 14.1235 64.4882 12.9703 65.4264 12.0403C66.363 11.1088 67.504 10.6438 68.8447 10.6438C69.5104 10.6438 70.1467 10.774 70.7505 11.0328C71.3558 11.2932 71.8403 11.6389 72.2026 12.0713L71.3867 12.8897C70.7721 12.1535 69.9253 11.7861 68.8431 11.7861C67.8647 11.7861 67.0194 12.1302 66.3057 12.8184C65.592 13.5066 65.2359 14.401 65.2359 15.4999C65.2359 16.5989 65.592 17.4932 66.3057 18.1814C67.0194 18.8696 67.8647 19.2137 68.8431 19.2137C69.8804 19.2137 70.7458 18.8681 71.4378 18.1752C71.8868 17.7242 72.1469 17.0964 72.2165 16.292H68.8431V15.1744H73.3436C73.39 15.4178 73.4102 15.6518 73.4102 15.8766Z" fill="black"/>
<path d="M80.5473 11.9923H76.3177V14.9404H80.1324V16.058H76.3177V19.0061H80.5473V20.15H75.1241V10.85H80.5473V11.9923Z" fill="black"/>
<path d="M85.5801 20.15H84.3865V11.9923H81.7918V10.85H88.1748V11.9923H85.5801V20.15Z" fill="black"/>
<path d="M92.7929 20.15V10.85H93.9865V20.15H92.7929Z" fill="black"/>
<path d="M99.2799 20.15H98.0863V11.9923H95.4916V10.85H101.875V11.9923H99.2799V20.15Z" fill="black"/>
<path d="M113.958 18.9487C113.044 19.888 111.909 20.3577 110.552 20.3577C109.194 20.3577 108.059 19.888 107.147 18.9487C106.234 18.0094 105.779 16.8593 105.779 15.5C105.779 14.1406 106.234 12.9905 107.147 12.0512C108.059 11.1119 109.194 10.6407 110.552 10.6407C111.902 10.6407 113.035 11.1135 113.951 12.0574C114.868 13.0014 115.326 14.1484 115.326 15.5C115.326 16.8593 114.869 18.0094 113.958 18.9487ZM108.028 18.1691C108.715 18.8666 109.556 19.2138 110.552 19.2138C111.547 19.2138 112.389 18.865 113.075 18.1691C113.762 17.4716 114.108 16.5819 114.108 15.5C114.108 14.4181 113.762 13.5284 113.075 12.8309C112.389 12.1334 111.547 11.7862 110.552 11.7862C109.556 11.7862 108.715 12.1349 108.028 12.8309C107.342 13.5284 106.997 14.4181 106.997 15.5C106.997 16.5819 107.342 17.4716 108.028 18.1691Z" fill="black"/>
<path d="M117.001 20.15V10.85H118.453L122.968 18.0838H123.019L122.968 16.292V10.85H124.161V20.15H122.915L118.192 12.5643H118.141L118.192 14.3561V20.15H117.001Z" fill="black"/>
<path d="M73.4102 15.8766C73.4102 17.1755 73.0262 18.2093 72.2568 18.9812C71.3836 19.8988 70.2442 20.3576 68.8447 20.3576C67.504 20.3576 66.363 19.8926 65.4264 18.9626C64.4882 18.0311 64.0191 16.8779 64.0191 15.5015C64.0191 14.1235 64.4882 12.9703 65.4264 12.0403C66.363 11.1088 67.504 10.6438 68.8447 10.6438C69.5104 10.6438 70.1467 10.774 70.7505 11.0328C71.3558 11.2932 71.8403 11.6389 72.2026 12.0713L71.3867 12.8897C70.7721 12.1535 69.9253 11.7861 68.8431 11.7861C67.8647 11.7861 67.0194 12.1302 66.3057 12.8184C65.592 13.5066 65.2359 14.401 65.2359 15.4999C65.2359 16.5989 65.592 17.4932 66.3057 18.1814C67.0194 18.8696 67.8647 19.2137 68.8431 19.2137C69.8804 19.2137 70.7458 18.8681 71.4378 18.1752C71.8868 17.7242 72.1469 17.0964 72.2165 16.292H68.8431V15.1744H73.3436C73.39 15.4178 73.4102 15.6518 73.4102 15.8766Z" stroke="black" stroke-width="0.2" stroke-miterlimit="10"/>
<path d="M80.5473 11.9923H76.3177V14.9404H80.1324V16.058H76.3177V19.0061H80.5473V20.15H75.1241V10.85H80.5473V11.9923Z" stroke="black" stroke-width="0.2" stroke-miterlimit="10"/>
<path d="M85.5801 20.15H84.3865V11.9923H81.7918V10.85H88.1748V11.9923H85.5801V20.15Z" stroke="black" stroke-width="0.2" stroke-miterlimit="10"/>
<path d="M92.7929 20.15V10.85H93.9865V20.15H92.7929Z" stroke="black" stroke-width="0.2" stroke-miterlimit="10"/>
<path d="M99.2799 20.15H98.0863V11.9923H95.4916V10.85H101.875V11.9923H99.2799V20.15Z" stroke="black" stroke-width="0.2" stroke-miterlimit="10"/>
<path d="M113.958 18.9487C113.044 19.888 111.909 20.3577 110.552 20.3577C109.194 20.3577 108.059 19.888 107.147 18.9487C106.234 18.0094 105.779 16.8593 105.779 15.5C105.779 14.1406 106.234 12.9905 107.147 12.0512C108.059 11.1119 109.194 10.6407 110.552 10.6407C111.902 10.6407 113.035 11.1135 113.951 12.0574C114.868 13.0014 115.326 14.1484 115.326 15.5C115.326 16.8593 114.869 18.0094 113.958 18.9487ZM108.028 18.1691C108.715 18.8666 109.556 19.2138 110.552 19.2138C111.547 19.2138 112.389 18.865 113.075 18.1691C113.762 17.4716 114.108 16.5819 114.108 15.5C114.108 14.4181 113.762 13.5284 113.075 12.8309C112.389 12.1334 111.547 11.7862 110.552 11.7862C109.556 11.7862 108.715 12.1349 108.028 12.8309C107.342 13.5284 106.997 14.4181 106.997 15.5C106.997 16.5819 107.342 17.4716 108.028 18.1691Z" stroke="black" stroke-width="0.2" stroke-miterlimit="10"/>
<path d="M117.001 20.15V10.85H118.453L122.968 18.0838H123.019L122.968 16.292V10.85H124.161V20.15H122.915L118.192 12.5643H118.141L118.192 14.3561V20.15H117.001Z" stroke="black" stroke-width="0.2" stroke-miterlimit="10"/>
<path fill-rule="evenodd" clip-rule="evenodd" d="M19.889 11.0665C20.7303 11.0665 21.5164 11.2996 22.19 11.7035L40.2727 22.2029L32.1914 30.2923L15.8352 13.9201L15.7729 13.8577C16.4463 12.2481 18.0502 11.0665 19.889 11.0665ZM15.4714 14.9708C15.4474 15.1531 15.4351 15.3381 15.4351 15.5252V46.4749C15.4351 46.6619 15.4474 46.8469 15.4714 47.0291L31.4847 30.9998L15.4714 14.9708ZM15.7729 48.1422C16.4464 49.7519 18.0506 50.9335 19.889 50.9335C20.7121 50.9335 21.485 50.7107 22.1477 50.3196L22.2004 50.2887L40.3038 39.8276L32.1914 31.7072L15.8352 48.0798L15.7729 48.1422ZM41.2 39.3098L48.7178 34.9656C50.1147 34.2106 51.063 32.7362 51.063 31.036C51.063 29.3481 50.1274 27.881 48.7445 27.1235L48.7287 27.1127L41.1673 22.7223L32.8982 30.9998L41.2 39.3098Z" fill="black"/>
<rect x="0.5" y="0.5" width="208" height="61" rx="4.5" stroke="black"/>
</svg>
