<svg width="673" height="780" viewBox="0 0 673 780" fill="none" xmlns="http://www.w3.org/2000/svg">
<path d="M356.722 85V98.4442" stroke="#C4C4C4" stroke-width="2.23" stroke-miterlimit="10" stroke-linecap="round"/>
<path d="M363.444 91.7221H350" stroke="#C4C4C4" stroke-width="2.23" stroke-miterlimit="10" stroke-linecap="round"/>
<path d="M377.95 85V98.4442" stroke="#C4C4C4" stroke-width="2.23" stroke-miterlimit="10" stroke-linecap="round"/>
<path d="M384.672 91.7221H371.228" stroke="#C4C4C4" stroke-width="2.23" stroke-miterlimit="10" stroke-linecap="round"/>
<path d="M399.177 85V98.4442" stroke="#C4C4C4" stroke-width="2.23" stroke-miterlimit="10" stroke-linecap="round"/>
<path d="M405.9 91.7221H392.455" stroke="#C4C4C4" stroke-width="2.23" stroke-miterlimit="10" stroke-linecap="round"/>
<path d="M420.405 85V98.4442" stroke="#C4C4C4" stroke-width="2.23" stroke-miterlimit="10" stroke-linecap="round"/>
<path d="M427.127 91.7221H413.683" stroke="#C4C4C4" stroke-width="2.23" stroke-miterlimit="10" stroke-linecap="round"/>
<path d="M441.633 85V98.4442" stroke="#C4C4C4" stroke-width="2.23" stroke-miterlimit="10" stroke-linecap="round"/>
<path d="M448.355 91.7221H434.911" stroke="#C4C4C4" stroke-width="2.23" stroke-miterlimit="10" stroke-linecap="round"/>
<path d="M462.861 85V98.4442" stroke="#C4C4C4" stroke-width="2.23" stroke-miterlimit="10" stroke-linecap="round"/>
<path d="M469.583 91.7221H456.139" stroke="#C4C4C4" stroke-width="2.23" stroke-miterlimit="10" stroke-linecap="round"/>
<path d="M484.088 85V98.4442" stroke="#C4C4C4" stroke-width="2.23" stroke-miterlimit="10" stroke-linecap="round"/>
<path d="M490.81 91.7221H477.366" stroke="#C4C4C4" stroke-width="2.23" stroke-miterlimit="10" stroke-linecap="round"/>
<path d="M505.316 85V98.4442" stroke="#C4C4C4" stroke-width="2.23" stroke-miterlimit="10" stroke-linecap="round"/>
<path d="M512.038 91.7221H498.594" stroke="#C4C4C4" stroke-width="2.23" stroke-miterlimit="10" stroke-linecap="round"/>
<path d="M356.722 104.132V117.576" stroke="#C4C4C4" stroke-width="2.23" stroke-miterlimit="10" stroke-linecap="round"/>
<path d="M363.444 110.854H350" stroke="#C4C4C4" stroke-width="2.23" stroke-miterlimit="10" stroke-linecap="round"/>
<path d="M377.95 104.132V117.576" stroke="#C4C4C4" stroke-width="2.23" stroke-miterlimit="10" stroke-linecap="round"/>
<path d="M384.672 110.854H371.228" stroke="#C4C4C4" stroke-width="2.23" stroke-miterlimit="10" stroke-linecap="round"/>
<path d="M399.177 104.132V117.576" stroke="#C4C4C4" stroke-width="2.23" stroke-miterlimit="10" stroke-linecap="round"/>
<path d="M405.9 110.854H392.455" stroke="#C4C4C4" stroke-width="2.23" stroke-miterlimit="10" stroke-linecap="round"/>
<path d="M420.405 104.132V117.576" stroke="#C4C4C4" stroke-width="2.23" stroke-miterlimit="10" stroke-linecap="round"/>
<path d="M427.127 110.854H413.683" stroke="#C4C4C4" stroke-width="2.23" stroke-miterlimit="10" stroke-linecap="round"/>
<path d="M441.633 104.132V117.576" stroke="#C4C4C4" stroke-width="2.23" stroke-miterlimit="10" stroke-linecap="round"/>
<path d="M448.355 110.854H434.911" stroke="#C4C4C4" stroke-width="2.23" stroke-miterlimit="10" stroke-linecap="round"/>
<path d="M462.861 104.132V117.576" stroke="#C4C4C4" stroke-width="2.23" stroke-miterlimit="10" stroke-linecap="round"/>
<path d="M469.583 110.854H456.139" stroke="#C4C4C4" stroke-width="2.23" stroke-miterlimit="10" stroke-linecap="round"/>
<path d="M484.088 104.132V117.576" stroke="#C4C4C4" stroke-width="2.23" stroke-miterlimit="10" stroke-linecap="round"/>
<path d="M490.81 110.854H477.366" stroke="#C4C4C4" stroke-width="2.23" stroke-miterlimit="10" stroke-linecap="round"/>
<path d="M505.316 104.132V117.576" stroke="#C4C4C4" stroke-width="2.23" stroke-miterlimit="10" stroke-linecap="round"/>
<path d="M512.038 110.854H498.594" stroke="#C4C4C4" stroke-width="2.23" stroke-miterlimit="10" stroke-linecap="round"/>
<path d="M356.722 123.292V136.709" stroke="#C4C4C4" stroke-width="2.23" stroke-miterlimit="10" stroke-linecap="round"/>
<path d="M363.444 130.014H350" stroke="#C4C4C4" stroke-width="2.23" stroke-miterlimit="10" stroke-linecap="round"/>
<path d="M377.95 123.292V136.709" stroke="#C4C4C4" stroke-width="2.23" stroke-miterlimit="10" stroke-linecap="round"/>
<path d="M384.672 130.014H371.228" stroke="#C4C4C4" stroke-width="2.23" stroke-miterlimit="10" stroke-linecap="round"/>
<path d="M399.177 123.292V136.709" stroke="#C4C4C4" stroke-width="2.23" stroke-miterlimit="10" stroke-linecap="round"/>
<path d="M405.9 130.014H392.455" stroke="#C4C4C4" stroke-width="2.23" stroke-miterlimit="10" stroke-linecap="round"/>
<path d="M420.405 123.292V136.709" stroke="#C4C4C4" stroke-width="2.23" stroke-miterlimit="10" stroke-linecap="round"/>
<path d="M427.127 130.014H413.683" stroke="#C4C4C4" stroke-width="2.23" stroke-miterlimit="10" stroke-linecap="round"/>
<path d="M441.633 123.292V136.709" stroke="#C4C4C4" stroke-width="2.23" stroke-miterlimit="10" stroke-linecap="round"/>
<path d="M448.355 130.014H434.911" stroke="#C4C4C4" stroke-width="2.23" stroke-miterlimit="10" stroke-linecap="round"/>
<path d="M462.861 123.292V136.709" stroke="#C4C4C4" stroke-width="2.23" stroke-miterlimit="10" stroke-linecap="round"/>
<path d="M469.583 130.014H456.139" stroke="#C4C4C4" stroke-width="2.23" stroke-miterlimit="10" stroke-linecap="round"/>
<path d="M484.088 123.292V136.709" stroke="#C4C4C4" stroke-width="2.23" stroke-miterlimit="10" stroke-linecap="round"/>
<path d="M490.81 130.014H477.366" stroke="#C4C4C4" stroke-width="2.23" stroke-miterlimit="10" stroke-linecap="round"/>
<path d="M505.316 123.292V136.709" stroke="#C4C4C4" stroke-width="2.23" stroke-miterlimit="10" stroke-linecap="round"/>
<path d="M512.038 130.014H498.594" stroke="#C4C4C4" stroke-width="2.23" stroke-miterlimit="10" stroke-linecap="round"/>
<path d="M356.722 142.424V155.868" stroke="#C4C4C4" stroke-width="2.23" stroke-miterlimit="10" stroke-linecap="round"/>
<path d="M363.444 149.146H350" stroke="#C4C4C4" stroke-width="2.23" stroke-miterlimit="10" stroke-linecap="round"/>
<path d="M377.95 142.424V155.868" stroke="#C4C4C4" stroke-width="2.23" stroke-miterlimit="10" stroke-linecap="round"/>
<path d="M384.672 149.146H371.228" stroke="#C4C4C4" stroke-width="2.23" stroke-miterlimit="10" stroke-linecap="round"/>
<path d="M399.177 142.424V155.868" stroke="#C4C4C4" stroke-width="2.23" stroke-miterlimit="10" stroke-linecap="round"/>
<path d="M405.9 149.146H392.455" stroke="#C4C4C4" stroke-width="2.23" stroke-miterlimit="10" stroke-linecap="round"/>
<path d="M420.405 142.424V155.868" stroke="#C4C4C4" stroke-width="2.23" stroke-miterlimit="10" stroke-linecap="round"/>
<path d="M427.127 149.146H413.683" stroke="#C4C4C4" stroke-width="2.23" stroke-miterlimit="10" stroke-linecap="round"/>
<path d="M441.633 142.424V155.868" stroke="#C4C4C4" stroke-width="2.23" stroke-miterlimit="10" stroke-linecap="round"/>
<path d="M448.355 149.146H434.911" stroke="#C4C4C4" stroke-width="2.23" stroke-miterlimit="10" stroke-linecap="round"/>
<path d="M462.861 142.424V155.868" stroke="#C4C4C4" stroke-width="2.23" stroke-miterlimit="10" stroke-linecap="round"/>
<path d="M469.583 149.146H456.139" stroke="#C4C4C4" stroke-width="2.23" stroke-miterlimit="10" stroke-linecap="round"/>
<path d="M484.088 142.424V155.868" stroke="#C4C4C4" stroke-width="2.23" stroke-miterlimit="10" stroke-linecap="round"/>
<path d="M490.81 149.146H477.366" stroke="#C4C4C4" stroke-width="2.23" stroke-miterlimit="10" stroke-linecap="round"/>
<path d="M505.316 142.424V155.868" stroke="#C4C4C4" stroke-width="2.23" stroke-miterlimit="10" stroke-linecap="round"/>
<path d="M512.038 149.146H498.594" stroke="#C4C4C4" stroke-width="2.23" stroke-miterlimit="10" stroke-linecap="round"/>
<path d="M356.722 161.583V175" stroke="#C4C4C4" stroke-width="2.23" stroke-miterlimit="10" stroke-linecap="round"/>
<path d="M363.444 168.305H350" stroke="#C4C4C4" stroke-width="2.23" stroke-miterlimit="10" stroke-linecap="round"/>
<path d="M377.95 161.583V175" stroke="#C4C4C4" stroke-width="2.23" stroke-miterlimit="10" stroke-linecap="round"/>
<path d="M384.672 168.305H371.228" stroke="#C4C4C4" stroke-width="2.23" stroke-miterlimit="10" stroke-linecap="round"/>
<path d="M399.177 161.583V175" stroke="#C4C4C4" stroke-width="2.23" stroke-miterlimit="10" stroke-linecap="round"/>
<path d="M405.9 168.305H392.455" stroke="#C4C4C4" stroke-width="2.23" stroke-miterlimit="10" stroke-linecap="round"/>
<path d="M420.405 161.583V175" stroke="#C4C4C4" stroke-width="2.23" stroke-miterlimit="10" stroke-linecap="round"/>
<path d="M427.127 168.305H413.683" stroke="#C4C4C4" stroke-width="2.23" stroke-miterlimit="10" stroke-linecap="round"/>
<path d="M441.633 161.583V175" stroke="#C4C4C4" stroke-width="2.23" stroke-miterlimit="10" stroke-linecap="round"/>
<path d="M448.355 168.305H434.911" stroke="#C4C4C4" stroke-width="2.23" stroke-miterlimit="10" stroke-linecap="round"/>
<path d="M462.861 161.583V175" stroke="#C4C4C4" stroke-width="2.23" stroke-miterlimit="10" stroke-linecap="round"/>
<path d="M469.583 168.305H456.139" stroke="#C4C4C4" stroke-width="2.23" stroke-miterlimit="10" stroke-linecap="round"/>
<path d="M484.088 161.583V175" stroke="#C4C4C4" stroke-width="2.23" stroke-miterlimit="10" stroke-linecap="round"/>
<path d="M490.81 168.305H477.366" stroke="#C4C4C4" stroke-width="2.23" stroke-miterlimit="10" stroke-linecap="round"/>
<path d="M505.316 161.583V175" stroke="#C4C4C4" stroke-width="2.23" stroke-miterlimit="10" stroke-linecap="round"/>
<path d="M512.038 168.305H498.594" stroke="#C4C4C4" stroke-width="2.23" stroke-miterlimit="10" stroke-linecap="round"/>
<rect x="15.0373" y="196.966" width="365" height="659" rx="28" transform="rotate(-30.2216 15.0373 196.966)" fill="#F8F8F8"/>
<rect x="145.598" y="220.44" width="164" height="26" rx="13" transform="rotate(-30.2216 145.598 220.44)" fill="#D9D9D9"/>
<rect x="212.174" y="231.421" width="60" height="26" rx="13" transform="rotate(-30.2216 212.174 231.421)" fill="#D9D9D9"/>
<path fill-rule="evenodd" clip-rule="evenodd" d="M347.648 28.053C338.917 12.963 319.746 7.72707 304.828 16.3582L27.0112 177.097C12.0933 185.728 7.07762 204.958 15.8084 220.048L324.783 751.162C333.514 766.252 352.685 771.488 367.603 762.857L645.42 602.118C660.338 593.487 665.354 574.257 656.623 559.167L347.648 28.053ZM338.922 41.9685C332.131 30.2318 317.22 26.1594 305.617 32.8725L256.236 61.4437L264.801 76.2476C268.196 82.1159 266.246 89.5942 260.444 92.9508L115.533 176.793C109.732 180.15 102.276 178.113 98.8812 172.245L90.3159 157.441L40.9346 186.012C29.3318 192.725 25.4307 207.682 32.2213 219.418L333.509 737.247C340.3 748.983 355.211 753.056 366.814 746.343L631.496 593.203C643.099 586.49 647 571.533 640.21 559.797L527.744 366.5L338.922 41.9685Z" fill="#3E3E3E"/>
<rect x="122.493" y="335.74" width="320" height="168" rx="14" transform="rotate(-30.2216 122.493 335.74)" fill="#D9D9D9"/>
<rect x="392.934" y="563.582" width="78" height="78" rx="39" transform="rotate(-30.2216 392.934 563.582)" fill="#D9D9D9"/>
<rect x="500.139" y="523.122" width="40" height="40" rx="20" transform="rotate(-30.2216 500.139 523.122)" fill="#D9D9D9"/>
<rect x="337.691" y="617.751" width="40" height="40" rx="20" transform="rotate(-30.2216 337.691 617.751)" fill="#D9D9D9"/>
<rect x="12" y="243" width="380" height="102" rx="51" fill="white"/>
<circle cx="63" cy="295" r="36" fill="#7E00FD"/>
<path d="M151.96 302.841C152.272 303.309 152.428 303.764 152.428 304.206C152.428 304.804 152.181 305.298 151.687 305.688C151.219 306.078 150.66 306.273 150.01 306.273C149.594 306.273 149.191 306.182 148.801 306C148.437 305.792 148.125 305.493 147.865 305.103L142.678 297.225C142.158 296.393 141.599 295.808 141.001 295.47C140.429 295.132 139.675 294.963 138.739 294.963H134.917V303.699C134.917 304.479 134.696 305.103 134.254 305.571C133.812 306.013 133.214 306.234 132.46 306.234C131.706 306.234 131.095 306.013 130.627 305.571C130.185 305.103 129.964 304.479 129.964 303.699V280.884C129.964 280.13 130.172 279.545 130.588 279.129C131.03 278.713 131.628 278.505 132.382 278.505H142.132C145.252 278.505 147.618 279.207 149.23 280.611C150.868 281.989 151.687 283.991 151.687 286.617C151.687 288.749 151.076 290.504 149.854 291.882C148.658 293.234 146.955 294.105 144.745 294.495C145.499 294.677 146.162 295.002 146.734 295.47C147.306 295.938 147.865 296.588 148.411 297.42L151.96 302.841ZM141.43 291.102C143.328 291.102 144.719 290.751 145.603 290.049C146.487 289.321 146.929 288.216 146.929 286.734C146.929 285.226 146.487 284.134 145.603 283.458C144.719 282.756 143.328 282.405 141.43 282.405H134.878V291.102H141.43ZM171.745 300.774C172.187 300.774 172.538 300.943 172.798 301.281C173.084 301.619 173.227 302.074 173.227 302.646C173.227 303.452 172.746 304.128 171.784 304.674C170.9 305.168 169.899 305.571 168.781 305.883C167.663 306.169 166.597 306.312 165.583 306.312C162.515 306.312 160.084 305.428 158.29 303.66C156.496 301.892 155.599 299.474 155.599 296.406C155.599 294.456 155.989 292.727 156.769 291.219C157.549 289.711 158.641 288.541 160.045 287.709C161.475 286.877 163.087 286.461 164.881 286.461C166.597 286.461 168.092 286.838 169.366 287.592C170.64 288.346 171.628 289.412 172.33 290.79C173.032 292.168 173.383 293.793 173.383 295.665C173.383 296.783 172.889 297.342 171.901 297.342H160.396C160.552 299.136 161.059 300.462 161.917 301.32C162.775 302.152 164.023 302.568 165.661 302.568C166.493 302.568 167.221 302.464 167.845 302.256C168.495 302.048 169.223 301.762 170.029 301.398C170.809 300.982 171.381 300.774 171.745 300.774ZM164.998 289.893C163.672 289.893 162.606 290.309 161.8 291.141C161.02 291.973 160.552 293.169 160.396 294.729H169.21C169.158 293.143 168.768 291.947 168.04 291.141C167.312 290.309 166.298 289.893 164.998 289.893ZM185.834 306.312C183.936 306.312 182.259 305.909 180.803 305.103C179.373 304.297 178.268 303.153 177.488 301.671C176.708 300.189 176.318 298.46 176.318 296.484C176.318 294.508 176.721 292.766 177.527 291.258C178.359 289.724 179.516 288.541 180.998 287.709C182.48 286.877 184.183 286.461 186.107 286.461C187.121 286.461 188.135 286.604 189.149 286.89C190.189 287.176 191.099 287.566 191.879 288.06C192.711 288.606 193.127 289.295 193.127 290.127C193.127 290.699 192.984 291.167 192.698 291.531C192.438 291.869 192.087 292.038 191.645 292.038C191.359 292.038 191.06 291.973 190.748 291.843C190.436 291.713 190.124 291.557 189.812 291.375C189.24 291.037 188.694 290.777 188.174 290.595C187.654 290.387 187.056 290.283 186.38 290.283C184.768 290.283 183.52 290.816 182.636 291.882C181.778 292.922 181.349 294.43 181.349 296.406C181.349 298.356 181.778 299.864 182.636 300.93C183.52 301.97 184.768 302.49 186.38 302.49C187.03 302.49 187.602 302.399 188.096 302.217C188.616 302.009 189.188 301.736 189.812 301.398C190.202 301.164 190.54 300.995 190.826 300.891C191.112 300.761 191.398 300.696 191.684 300.696C192.1 300.696 192.451 300.878 192.737 301.242C193.023 301.606 193.166 302.061 193.166 302.607C193.166 303.049 193.062 303.439 192.854 303.777C192.672 304.089 192.36 304.375 191.918 304.635C191.112 305.155 190.176 305.571 189.11 305.883C188.044 306.169 186.952 306.312 185.834 306.312ZM205.111 306.312C203.161 306.312 201.445 305.909 199.963 305.103C198.507 304.297 197.376 303.14 196.57 301.632C195.764 300.124 195.361 298.369 195.361 296.367C195.361 294.365 195.764 292.623 196.57 291.141C197.376 289.633 198.507 288.476 199.963 287.67C201.445 286.864 203.161 286.461 205.111 286.461C207.061 286.461 208.764 286.864 210.22 287.67C211.702 288.476 212.833 289.633 213.613 291.141C214.419 292.623 214.822 294.365 214.822 296.367C214.822 298.369 214.419 300.124 213.613 301.632C212.833 303.14 211.702 304.297 210.22 305.103C208.764 305.909 207.061 306.312 205.111 306.312ZM205.072 302.529C206.658 302.529 207.867 302.009 208.699 300.969C209.531 299.929 209.947 298.395 209.947 296.367C209.947 294.365 209.531 292.844 208.699 291.804C207.867 290.738 206.671 290.205 205.111 290.205C203.551 290.205 202.342 290.738 201.484 291.804C200.652 292.844 200.236 294.365 200.236 296.367C200.236 298.395 200.652 299.929 201.484 300.969C202.316 302.009 203.512 302.529 205.072 302.529ZM229.493 286.539C230.169 286.487 230.702 286.63 231.092 286.968C231.482 287.306 231.677 287.813 231.677 288.489C231.677 289.191 231.508 289.711 231.17 290.049C230.832 290.387 230.221 290.608 229.337 290.712L228.167 290.829C226.633 290.985 225.502 291.505 224.774 292.389C224.072 293.273 223.721 294.378 223.721 295.704V303.894C223.721 304.648 223.487 305.233 223.019 305.649C222.551 306.039 221.966 306.234 221.264 306.234C220.562 306.234 219.977 306.039 219.509 305.649C219.067 305.233 218.846 304.648 218.846 303.894V288.801C218.846 288.073 219.067 287.514 219.509 287.124C219.977 286.734 220.549 286.539 221.225 286.539C221.901 286.539 222.447 286.734 222.863 287.124C223.279 287.488 223.487 288.021 223.487 288.723V290.283C223.981 289.139 224.709 288.255 225.671 287.631C226.659 287.007 227.751 286.656 228.947 286.578L229.493 286.539ZM249.307 278.31C250.035 278.31 250.633 278.518 251.101 278.934C251.569 279.35 251.803 279.896 251.803 280.572V303.894C251.803 304.596 251.582 305.155 251.14 305.571C250.698 305.987 250.113 306.195 249.385 306.195C248.657 306.195 248.072 305.987 247.63 305.571C247.188 305.155 246.967 304.596 246.967 303.894V302.919C246.395 303.985 245.563 304.817 244.471 305.415C243.405 306.013 242.183 306.312 240.805 306.312C239.167 306.312 237.698 305.896 236.398 305.064C235.124 304.232 234.123 303.062 233.395 301.554C232.693 300.02 232.342 298.265 232.342 296.289C232.342 294.313 232.693 292.584 233.395 291.102C234.123 289.62 235.124 288.476 236.398 287.67C237.672 286.864 239.141 286.461 240.805 286.461C242.183 286.461 243.405 286.747 244.471 287.319C245.537 287.891 246.356 288.697 246.928 289.737V280.494C246.928 279.844 247.136 279.324 247.552 278.934C247.994 278.518 248.579 278.31 249.307 278.31ZM242.092 302.529C243.652 302.529 244.848 301.996 245.68 300.93C246.538 299.864 246.967 298.343 246.967 296.367C246.967 294.391 246.538 292.883 245.68 291.843C244.848 290.777 243.665 290.244 242.131 290.244C240.571 290.244 239.362 290.764 238.504 291.804C237.646 292.844 237.217 294.339 237.217 296.289C237.217 298.265 237.646 299.799 238.504 300.891C239.362 301.983 240.558 302.529 242.092 302.529ZM259.236 306.234C258.534 306.234 257.949 306.039 257.481 305.649C257.039 305.233 256.818 304.648 256.818 303.894V288.84C256.818 288.086 257.039 287.514 257.481 287.124C257.949 286.734 258.534 286.539 259.236 286.539C259.938 286.539 260.523 286.734 260.991 287.124C261.459 287.514 261.693 288.086 261.693 288.84V303.894C261.693 304.648 261.459 305.233 260.991 305.649C260.523 306.039 259.938 306.234 259.236 306.234ZM259.236 283.068C258.352 283.068 257.65 282.834 257.13 282.366C256.61 281.872 256.35 281.235 256.35 280.455C256.35 279.675 256.61 279.051 257.13 278.583C257.65 278.115 258.352 277.881 259.236 277.881C260.094 277.881 260.783 278.115 261.303 278.583C261.849 279.051 262.122 279.675 262.122 280.455C262.122 281.235 261.862 281.872 261.342 282.366C260.822 282.834 260.12 283.068 259.236 283.068ZM277.797 286.461C280.085 286.461 281.788 287.111 282.906 288.411C284.024 289.711 284.583 291.674 284.583 294.3V303.894C284.583 304.622 284.362 305.194 283.92 305.61C283.504 306.026 282.919 306.234 282.165 306.234C281.411 306.234 280.813 306.026 280.371 305.61C279.929 305.194 279.708 304.622 279.708 303.894V294.573C279.708 293.091 279.422 292.012 278.85 291.336C278.304 290.66 277.433 290.322 276.237 290.322C274.833 290.322 273.702 290.764 272.844 291.648C272.012 292.532 271.596 293.715 271.596 295.197V303.894C271.596 304.622 271.375 305.194 270.933 305.61C270.491 306.026 269.893 306.234 269.139 306.234C268.385 306.234 267.787 306.026 267.345 305.61C266.929 305.194 266.721 304.622 266.721 303.894V288.801C266.721 288.125 266.942 287.579 267.384 287.163C267.826 286.747 268.424 286.539 269.178 286.539C269.854 286.539 270.4 286.747 270.816 287.163C271.258 287.553 271.479 288.073 271.479 288.723V289.776C272.129 288.71 273 287.891 274.092 287.319C275.184 286.747 276.419 286.461 277.797 286.461ZM305.68 286.539C306.408 286.539 306.993 286.747 307.435 287.163C307.877 287.579 308.098 288.138 308.098 288.84V304.245C308.098 307.235 307.266 309.497 305.602 311.031C303.938 312.565 301.481 313.332 298.231 313.332C295.397 313.332 293.031 312.799 291.133 311.733C290.171 311.161 289.69 310.472 289.69 309.666C289.69 309.094 289.82 308.639 290.08 308.301C290.366 307.963 290.73 307.794 291.172 307.794C291.406 307.794 291.692 307.846 292.03 307.95C292.368 308.08 292.719 308.223 293.083 308.379C294.019 308.769 294.851 309.068 295.579 309.276C296.333 309.484 297.191 309.588 298.153 309.588C301.559 309.588 303.262 307.924 303.262 304.596V302.1C302.69 303.166 301.858 303.998 300.766 304.596C299.674 305.168 298.426 305.454 297.022 305.454C295.358 305.454 293.876 305.064 292.576 304.284C291.302 303.478 290.301 302.36 289.573 300.93C288.845 299.5 288.481 297.849 288.481 295.977C288.481 294.105 288.832 292.454 289.534 291.024C290.262 289.568 291.276 288.45 292.576 287.67C293.876 286.864 295.358 286.461 297.022 286.461C298.426 286.461 299.674 286.76 300.766 287.358C301.858 287.93 302.69 288.749 303.262 289.815V288.801C303.262 288.125 303.483 287.579 303.925 287.163C304.367 286.747 304.952 286.539 305.68 286.539ZM298.309 301.671C299.869 301.671 301.078 301.164 301.936 300.15C302.82 299.136 303.262 297.745 303.262 295.977C303.262 294.183 302.82 292.779 301.936 291.765C301.078 290.751 299.869 290.244 298.309 290.244C296.775 290.244 295.566 290.751 294.682 291.765C293.798 292.779 293.356 294.183 293.356 295.977C293.356 297.745 293.798 299.136 294.682 300.15C295.566 301.164 296.775 301.671 298.309 301.671ZM315.448 306.234C314.616 306.234 313.927 305.961 313.381 305.415C312.835 304.843 312.562 304.141 312.562 303.309C312.562 302.477 312.835 301.788 313.381 301.242C313.927 300.67 314.616 300.384 315.448 300.384C316.28 300.384 316.969 300.67 317.515 301.242C318.061 301.788 318.334 302.477 318.334 303.309C318.334 304.141 318.061 304.843 317.515 305.415C316.969 305.961 316.28 306.234 315.448 306.234ZM325.122 306.234C324.29 306.234 323.601 305.961 323.055 305.415C322.509 304.843 322.236 304.141 322.236 303.309C322.236 302.477 322.509 301.788 323.055 301.242C323.601 300.67 324.29 300.384 325.122 300.384C325.954 300.384 326.643 300.67 327.189 301.242C327.735 301.788 328.008 302.477 328.008 303.309C328.008 304.141 327.735 304.843 327.189 305.415C326.643 305.961 325.954 306.234 325.122 306.234Z" fill="black"/>
<path d="M159.092 323.484C159.86 323.7 160.442 324.072 160.838 324.6C161.246 325.128 161.45 325.782 161.45 326.562C161.45 327.666 161.078 328.536 160.334 329.172C159.59 329.808 158.576 330.126 157.292 330.126C156.512 330.126 155.762 329.994 155.042 329.73C154.334 329.466 153.734 329.106 153.242 328.65C153.05 328.47 152.954 328.266 152.954 328.038C152.954 327.858 153.002 327.708 153.098 327.588C153.194 327.468 153.308 327.408 153.44 327.408C153.608 327.408 153.776 327.474 153.944 327.606C154.496 328.05 155.036 328.374 155.564 328.578C156.092 328.782 156.662 328.884 157.274 328.884C158.162 328.884 158.834 328.68 159.29 328.272C159.758 327.864 159.992 327.276 159.992 326.508C159.992 324.96 159.02 324.186 157.076 324.186H156.122C155.93 324.186 155.774 324.126 155.654 324.006C155.546 323.874 155.492 323.724 155.492 323.556C155.492 323.388 155.546 323.244 155.654 323.124C155.774 323.004 155.93 322.944 156.122 322.944H156.788C157.724 322.944 158.444 322.74 158.948 322.332C159.452 321.912 159.704 321.312 159.704 320.532C159.704 319.848 159.5 319.326 159.092 318.966C158.684 318.594 158.108 318.408 157.364 318.408C156.8 318.408 156.254 318.516 155.726 318.732C155.198 318.936 154.67 319.254 154.142 319.686C153.974 319.818 153.806 319.884 153.638 319.884C153.506 319.884 153.392 319.824 153.296 319.704C153.2 319.584 153.152 319.434 153.152 319.254C153.152 319.026 153.248 318.822 153.44 318.642C153.932 318.186 154.526 317.826 155.222 317.562C155.93 317.298 156.656 317.166 157.4 317.166C158.552 317.166 159.464 317.46 160.136 318.048C160.82 318.624 161.162 319.404 161.162 320.388C161.162 321.12 160.976 321.762 160.604 322.314C160.244 322.854 159.74 323.244 159.092 323.484ZM164.863 323.07C164.575 323.07 164.335 322.98 164.143 322.8C163.951 322.608 163.855 322.362 163.855 322.062C163.855 321.762 163.951 321.522 164.143 321.342C164.335 321.15 164.575 321.054 164.863 321.054C165.139 321.054 165.367 321.15 165.547 321.342C165.739 321.522 165.835 321.762 165.835 322.062C165.835 322.362 165.739 322.608 165.547 322.8C165.367 322.98 165.139 323.07 164.863 323.07ZM164.863 330.09C164.575 330.09 164.335 330 164.143 329.82C163.951 329.628 163.855 329.382 163.855 329.082C163.855 328.782 163.951 328.536 164.143 328.344C164.335 328.152 164.575 328.056 164.863 328.056C165.139 328.056 165.367 328.152 165.547 328.344C165.739 328.536 165.835 328.782 165.835 329.082C165.835 329.382 165.739 329.628 165.547 329.82C165.367 330 165.139 330.09 164.863 330.09ZM172.306 330.144C170.854 330.144 169.75 329.592 168.994 328.488C168.238 327.384 167.86 325.776 167.86 323.664C167.86 321.54 168.238 319.926 168.994 318.822C169.75 317.718 170.854 317.166 172.306 317.166C173.758 317.166 174.862 317.718 175.618 318.822C176.374 319.914 176.752 321.522 176.752 323.646C176.752 325.77 176.374 327.384 175.618 328.488C174.862 329.592 173.758 330.144 172.306 330.144ZM172.306 328.902C173.314 328.902 174.058 328.476 174.538 327.624C175.018 326.772 175.258 325.446 175.258 323.646C175.258 321.834 175.018 320.508 174.538 319.668C174.07 318.828 173.326 318.408 172.306 318.408C171.298 318.408 170.554 318.834 170.074 319.686C169.594 320.526 169.354 321.846 169.354 323.646C169.354 325.446 169.594 326.772 170.074 327.624C170.554 328.476 171.298 328.902 172.306 328.902ZM185.295 323.484C186.039 323.712 186.615 324.102 187.023 324.654C187.443 325.206 187.653 325.866 187.653 326.634C187.653 327.726 187.257 328.584 186.465 329.208C185.673 329.82 184.551 330.126 183.099 330.126C181.647 330.126 180.525 329.82 179.733 329.208C178.941 328.584 178.545 327.726 178.545 326.634C178.545 325.854 178.755 325.188 179.175 324.636C179.595 324.084 180.177 323.7 180.921 323.484C180.285 323.244 179.781 322.866 179.409 322.35C179.037 321.834 178.851 321.228 178.851 320.532C178.851 319.5 179.223 318.684 179.967 318.084C180.723 317.472 181.767 317.166 183.099 317.166C184.431 317.166 185.469 317.472 186.213 318.084C186.969 318.684 187.347 319.5 187.347 320.532C187.347 321.228 187.161 321.84 186.789 322.368C186.417 322.884 185.919 323.256 185.295 323.484ZM180.309 320.64C180.309 321.384 180.543 321.954 181.011 322.35C181.491 322.746 182.187 322.944 183.099 322.944C184.011 322.944 184.701 322.746 185.169 322.35C185.649 321.954 185.889 321.384 185.889 320.64C185.889 319.932 185.649 319.38 185.169 318.984C184.701 318.588 184.011 318.39 183.099 318.39C182.187 318.39 181.491 318.588 181.011 318.984C180.543 319.38 180.309 319.932 180.309 320.64ZM183.099 328.902C185.163 328.902 186.195 328.116 186.195 326.544C186.195 324.972 185.163 324.186 183.099 324.186C181.035 324.186 180.003 324.972 180.003 326.544C180.003 328.116 181.035 328.902 183.099 328.902Z" fill="black"/>
<path d="M138.156 319.125C138.156 318.763 137.862 318.469 137.5 318.469C137.138 318.469 136.844 318.763 136.844 319.125V323.5C136.844 323.726 136.96 323.937 137.152 324.056L139.777 325.697C140.085 325.889 140.489 325.796 140.681 325.488C140.874 325.181 140.78 324.776 140.473 324.584L138.156 323.136V319.125Z" fill="black"/>
<path fill-rule="evenodd" clip-rule="evenodd" d="M137.5 315.844C133.272 315.844 129.844 319.272 129.844 323.5C129.844 327.728 133.272 331.156 137.5 331.156C141.728 331.156 145.156 327.728 145.156 323.5C145.156 319.272 141.728 315.844 137.5 315.844ZM131.156 323.5C131.156 319.996 133.996 317.156 137.5 317.156C141.004 317.156 143.844 319.996 143.844 323.5C143.844 327.004 141.004 329.844 137.5 329.844C133.996 329.844 131.156 327.004 131.156 323.5Z" fill="black"/>
<mask id="path-94-outside-1_506_577" maskUnits="userSpaceOnUse" x="459.079" y="357.274" width="143" height="44" fill="black">
<rect fill="white" x="459.079" y="357.274" width="143" height="44"/>
<path d="M474.079 379.144C484.547 373.909 496.511 371.666 508.102 372.414C519.318 373.162 529.413 378.77 539.508 383.256C555.211 387.743 572.035 386.621 586.617 379.144"/>
</mask>
<path d="M467.545 366.076C460.328 369.685 457.403 378.46 461.011 385.677C464.62 392.894 473.395 395.82 480.612 392.211L467.545 366.076ZM508.102 372.414L509.074 357.836L509.058 357.835L509.042 357.834L508.102 372.414ZM539.508 383.256L533.574 396.607L534.51 397.023L535.494 397.304L539.508 383.256ZM593.283 392.144C600.463 388.462 603.299 379.657 599.617 372.477C595.935 365.297 587.13 362.461 579.95 366.143L593.283 392.144ZM480.612 392.211C488.644 388.195 498.011 386.403 507.161 386.993L509.042 357.834C495.012 356.929 480.45 359.623 467.545 366.076L480.612 392.211ZM507.13 386.991C514.987 387.515 521.689 391.325 533.574 396.607L545.441 369.906C537.137 366.215 523.649 358.808 509.074 357.836L507.13 386.991ZM535.494 397.304C554.431 402.715 575.11 401.464 593.283 392.144L579.95 366.143C568.961 371.779 555.991 372.771 543.521 369.208L535.494 397.304Z" fill="white" mask="url(#path-94-outside-1_506_577)"/>
<mask id="path-96-outside-2_506_577" maskUnits="userSpaceOnUse" x="459.079" y="373.002" width="143" height="44" fill="black">
<rect fill="white" x="459.079" y="373.002" width="143" height="44"/>
<path d="M474.079 394.847C484.173 390.36 495.016 387.369 506.232 388.117C517.075 388.865 526.796 392.977 536.143 397.838C552.593 403.82 571.287 402.698 586.617 394.847"/>
</mask>
<path d="M468.145 381.496C460.771 384.773 457.451 393.407 460.728 400.78C464.005 408.154 472.639 411.474 480.012 408.197L468.145 381.496ZM506.232 388.117L507.237 373.541L507.221 373.54L507.204 373.539L506.232 388.117ZM536.143 397.838L529.402 410.8L530.251 411.241L531.15 411.568L536.143 397.838ZM593.277 407.85C600.459 404.172 603.298 395.368 599.62 388.186C595.942 381.005 587.138 378.165 579.956 381.843L593.277 407.85ZM480.012 408.197C488.872 404.26 497.255 402.161 505.26 402.694L507.204 373.539C492.777 372.577 479.475 376.46 468.145 381.496L480.012 408.197ZM505.227 402.692C513.025 403.23 520.587 406.216 529.402 410.8L542.883 384.875C533.004 379.738 521.124 374.499 507.237 373.541L505.227 402.692ZM531.15 411.568C551.359 418.917 574.279 417.581 593.277 407.85L579.956 381.843C568.296 387.815 553.828 388.723 541.136 384.107L531.15 411.568Z" fill="white" mask="url(#path-96-outside-2_506_577)"/>
<mask id="path-98-outside-3_506_577" maskUnits="userSpaceOnUse" x="459.079" y="388.926" width="143" height="44" fill="black">
<rect fill="white" x="459.079" y="388.926" width="143" height="44"/>
<path d="M474.079 410.923C485.669 404.941 498.755 402.698 511.84 404.567C521.561 406.063 529.413 410.55 538.012 414.288C553.715 420.27 571.661 418.027 586.617 410.923"/>
</mask>
<path d="M467.378 397.941C460.208 401.641 457.395 410.454 461.096 417.624C464.797 424.794 473.609 427.607 480.779 423.906L467.378 397.941ZM511.84 404.567L514.062 390.127L513.984 390.115L513.907 390.104L511.84 404.567ZM538.012 414.288L532.187 427.687L532.496 427.821L532.811 427.941L538.012 414.288ZM592.885 424.12C600.174 420.658 603.275 411.943 599.813 404.655C596.351 397.366 587.636 394.265 580.348 397.727L592.885 424.12ZM480.779 423.906C489.677 419.314 499.699 417.591 509.774 419.031L513.907 390.104C497.811 387.805 481.661 390.569 467.378 397.941L480.779 423.906ZM509.619 419.008C516.863 420.122 521.78 423.162 532.187 427.687L543.838 400.89C537.045 397.937 526.259 392.004 514.062 390.127L509.619 419.008ZM532.811 427.941C553.071 435.659 575.221 432.511 592.885 424.12L580.348 397.727C568.102 403.544 554.359 404.882 543.213 400.636L532.811 427.941Z" fill="white" mask="url(#path-98-outside-3_506_577)"/>
<path d="M446 447.564L458.824 352L535.17 410.924L446 447.564Z" fill="#FF2AAC"/>
<path d="M559 376.5L532.5 372H525.5L524.5 379C531.167 383.5 544.7 392.5 545.5 392.5C546.3 392.5 556.167 388.833 561 387L559 376.5Z" fill="white"/>
<path d="M474.079 379.144C484.547 373.909 496.511 371.666 508.102 372.414C519.318 373.162 529.413 378.77 539.508 383.256C555.211 387.743 572.035 386.621 586.617 379.144" stroke="#19223F" stroke-width="5.6082" stroke-miterlimit="10" stroke-linecap="round"/>
<path d="M474.079 394.847C484.173 390.36 495.016 387.369 506.232 388.117C517.075 388.865 526.796 392.977 536.143 397.838C552.593 403.82 571.287 402.698 586.617 394.847" stroke="#19223F" stroke-width="5.6082" stroke-miterlimit="10" stroke-linecap="round"/>
<path d="M474.079 410.923C485.669 404.941 498.755 402.698 511.84 404.567C521.561 406.063 529.413 410.55 538.012 414.288C553.715 420.27 571.661 418.027 586.617 410.923" stroke="#19223F" stroke-width="5.6082" stroke-miterlimit="10" stroke-linecap="round"/>
</svg>
