<svg width="186" height="62" viewBox="0 0 186 62" fill="none" xmlns="http://www.w3.org/2000/svg">
<rect x="0.5" y="0.5" width="185" height="61" rx="6.5" fill="white"/>
<path d="M126.365 29.7614V33.3125H124.139V35.6413H126.365V43.554C126.365 46.2559 127.587 47.3367 130.662 47.3367C131.203 47.3367 131.717 47.2723 132.168 47.1952V44.8921C131.782 44.9307 131.537 44.9564 131.113 44.9564C129.736 44.9564 129.131 44.3131 129.131 42.8464V35.6413H132.168V33.3125H129.131V29.7614H126.365Z" fill="black"/>
<path d="M140.001 47.5297C144.093 47.5297 146.602 44.7892 146.602 40.2474C146.602 35.7314 144.08 32.978 140.001 32.978C135.91 32.978 133.388 35.7314 133.388 40.2474C133.388 44.7892 135.897 47.5297 140.001 47.5297ZM140.001 45.0722C137.595 45.0722 136.244 43.3096 136.244 40.2474C136.244 37.211 137.595 35.4354 140.001 35.4354C142.394 35.4354 143.758 37.211 143.758 40.2474C143.758 43.2967 142.394 45.0722 140.001 45.0722Z" fill="black"/>
<path d="M148.748 47.2595H151.514V38.9865C151.514 37.018 152.994 35.6928 155.091 35.6928C155.58 35.6928 156.404 35.7828 156.635 35.86V33.1324C156.339 33.0552 155.812 33.0166 155.4 33.0166C153.573 33.0166 152.016 34.0202 151.617 35.3968H151.411V33.2482H148.748V47.2595Z" fill="black"/>
<path d="M163.504 35.3325C165.549 35.3325 166.887 36.7607 166.952 38.9608H159.875C160.03 36.7735 161.458 35.3325 163.504 35.3325ZM166.939 43.4768C166.424 44.5704 165.279 45.1752 163.607 45.1752C161.394 45.1752 159.965 43.6183 159.875 41.1609V41.0065H169.77V40.0415C169.77 35.6413 167.415 32.978 163.517 32.978C159.567 32.978 157.058 35.8214 157.058 40.2989C157.058 44.7763 159.515 47.5297 163.529 47.5297C166.733 47.5297 168.972 45.9857 169.602 43.4768H166.939Z" fill="black"/>
<path d="M108.225 42.0853C108.438 45.5259 111.305 47.7262 115.572 47.7262C120.133 47.7262 122.987 45.4192 122.987 41.7386C122.987 38.8448 121.36 37.2446 117.413 36.3244L115.292 35.8043C112.785 35.2176 111.772 34.4308 111.772 33.0572C111.772 31.3236 113.345 30.1901 115.706 30.1901C117.946 30.1901 119.493 31.297 119.773 33.0706H122.68C122.507 29.8301 119.653 27.5497 115.746 27.5497C111.545 27.5497 108.745 29.8301 108.745 33.2573C108.745 36.0844 110.332 37.7646 113.812 38.5781L116.292 39.1782C118.84 39.7783 119.96 40.6584 119.96 42.1253C119.96 43.8323 118.199 45.0725 115.799 45.0725C113.225 45.0725 111.438 43.9123 111.185 42.0853H108.225Z" fill="black"/>
<path d="M79.5692 33.0166C77.665 33.0166 76.0181 33.9687 75.1689 35.5641H74.9631V33.2482H72.2998V51.9171H75.066V45.1366H75.2847C76.0181 46.6162 77.6007 47.4911 79.5949 47.4911C83.1331 47.4911 85.3847 44.6991 85.3847 40.2474C85.3847 35.7957 83.1331 33.0166 79.5692 33.0166ZM78.7843 45.0079C76.4684 45.0079 75.0145 43.1809 75.0145 40.2603C75.0145 37.3268 76.4684 35.4998 78.7972 35.4998C81.1389 35.4998 82.5413 37.2882 82.5413 40.2474C82.5413 43.2195 81.1389 45.0079 78.7843 45.0079Z" fill="black"/>
<path d="M95.0642 33.0166C93.16 33.0166 91.5131 33.9687 90.664 35.5641H90.4581V33.2482H87.7948V51.9171H90.561V45.1366H90.7798C91.5131 46.6162 93.0957 47.4911 95.0899 47.4911C98.6282 47.4911 100.88 44.6991 100.88 40.2474C100.88 35.7957 98.6282 33.0166 95.0642 33.0166ZM94.2794 45.0079C91.9635 45.0079 90.5096 43.1809 90.5096 40.2603C90.5096 37.3268 91.9635 35.4998 94.2922 35.4998C96.6339 35.4998 98.0363 37.2882 98.0363 40.2474C98.0363 43.2195 96.6339 45.0079 94.2794 45.0079Z" fill="black"/>
<path d="M67.3367 47.2595H70.5105L63.5627 28.0164H60.3489L53.4011 47.2595H56.4683L58.2419 42.152H65.5764L67.3367 47.2595ZM61.8025 31.5103H62.0292L64.8163 39.6449H59.002L61.8025 31.5103Z" fill="black"/>
<path d="M55.2592 13.502V22.7849H58.6109C61.3771 22.7849 62.9789 21.0802 62.9789 18.1145C62.9789 15.1939 61.3642 13.502 58.6109 13.502H55.2592ZM56.7002 14.8143H58.45C60.3735 14.8143 61.5122 16.0366 61.5122 18.1338C61.5122 20.2631 60.3928 21.4726 58.45 21.4726H56.7002V14.8143Z" fill="black"/>
<path d="M67.8848 22.92C69.9306 22.92 71.185 21.5498 71.185 19.2789C71.185 17.0209 69.9241 15.6442 67.8848 15.6442C65.8391 15.6442 64.5782 17.0209 64.5782 19.2789C64.5782 21.5498 65.8327 22.92 67.8848 22.92ZM67.8848 21.6913C66.6818 21.6913 66.0064 20.81 66.0064 19.2789C66.0064 17.7607 66.6818 16.8729 67.8848 16.8729C69.0814 16.8729 69.7633 17.7607 69.7633 19.2789C69.7633 20.8035 69.0814 21.6913 67.8848 21.6913Z" fill="black"/>
<path d="M81.8678 15.7793H80.4847L79.2367 21.1252H79.1273L77.6863 15.7793H76.3611L74.9201 21.1252H74.8171L73.5627 15.7793H72.1603L74.0902 22.7849H75.5119L76.9529 17.6256H77.0623L78.5097 22.7849H79.9443L81.8678 15.7793Z" fill="black"/>
<path d="M83.4607 22.7849H84.8438V18.687C84.8438 17.5934 85.4935 16.9115 86.5164 16.9115C87.5392 16.9115 88.0282 17.4712 88.0282 18.597V22.7849H89.4113V18.2496C89.4113 16.5834 88.5492 15.6442 86.986 15.6442C85.931 15.6442 85.2362 16.1138 84.8952 16.8922H84.7923V15.7793H83.4607V22.7849Z" fill="black"/>
<path d="M91.5895 22.7849H92.9727V13.0452H91.5895V22.7849Z" fill="black"/>
<path d="M98.1745 22.92C100.22 22.92 101.475 21.5498 101.475 19.2789C101.475 17.0209 100.214 15.6442 98.1745 15.6442C96.1287 15.6442 94.8678 17.0209 94.8678 19.2789C94.8678 21.5498 96.1223 22.92 98.1745 22.92ZM98.1745 21.6913C96.9715 21.6913 96.296 20.81 96.296 19.2789C96.296 17.7607 96.9715 16.8729 98.1745 16.8729C99.371 16.8729 100.053 17.7607 100.053 19.2789C100.053 20.8035 99.371 21.6913 98.1745 21.6913Z" fill="black"/>
<path d="M105.596 21.7363C104.843 21.7363 104.296 21.3696 104.296 20.7392C104.296 20.1216 104.734 19.7935 105.699 19.7292L107.41 19.6198V20.2053C107.41 21.0737 106.638 21.7363 105.596 21.7363ZM105.242 22.9007C106.162 22.9007 106.927 22.5019 107.345 21.8007H107.455V22.7849H108.787V17.9987C108.787 16.5191 107.796 15.6442 106.04 15.6442C104.451 15.6442 103.318 16.4162 103.177 17.6191H104.515C104.669 17.1238 105.203 16.8407 105.975 16.8407C106.921 16.8407 107.41 17.2589 107.41 17.9987V18.6034L105.512 18.7128C103.846 18.8157 102.907 19.5426 102.907 20.8035C102.907 22.0837 103.891 22.9007 105.242 22.9007Z" fill="black"/>
<path d="M113.48 22.9007C114.445 22.9007 115.262 22.444 115.68 21.6784H115.79V22.7849H117.115V13.0452H115.732V16.8922H115.629C115.249 16.1202 114.439 15.6635 113.48 15.6635C111.711 15.6635 110.572 17.0659 110.572 19.2789C110.572 21.4983 111.698 22.9007 113.48 22.9007ZM113.873 16.9051C115.03 16.9051 115.757 17.825 115.757 19.2853C115.757 20.7521 115.037 21.6591 113.873 21.6591C112.702 21.6591 112 20.7649 112 19.2789C112 17.8057 112.708 16.9051 113.873 16.9051Z" fill="black"/>
<path d="M126.084 22.92C128.13 22.92 129.384 21.5498 129.384 19.2789C129.384 17.0209 128.123 15.6442 126.084 15.6442C124.038 15.6442 122.777 17.0209 122.777 19.2789C122.777 21.5498 124.032 22.92 126.084 22.92ZM126.084 21.6913C124.881 21.6913 124.205 20.81 124.205 19.2789C124.205 17.7607 124.881 16.8729 126.084 16.8729C127.28 16.8729 127.962 17.7607 127.962 19.2789C127.962 20.8035 127.28 21.6913 126.084 21.6913Z" fill="black"/>
<path d="M131.215 22.7849H132.598V18.687C132.598 17.5934 133.248 16.9115 134.271 16.9115C135.293 16.9115 135.782 17.4712 135.782 18.597V22.7849H137.166V18.2496C137.166 16.5834 136.303 15.6442 134.74 15.6442C133.685 15.6442 132.99 16.1138 132.649 16.8922H132.547V15.7793H131.215V22.7849Z" fill="black"/>
<path d="M143.536 14.0359V15.8114H142.423V16.9758H143.536V20.9322C143.536 22.2831 144.147 22.8235 145.684 22.8235C145.954 22.8235 146.212 22.7914 146.437 22.7528V21.6012C146.244 21.6205 146.122 21.6334 145.909 21.6334C145.221 21.6334 144.919 21.3117 144.919 20.5784V16.9758H146.437V15.8114H144.919V14.0359H143.536Z" fill="black"/>
<path d="M148.293 22.7849H149.677V18.6935C149.677 17.632 150.307 16.9179 151.439 16.9179C152.417 16.9179 152.938 17.484 152.938 18.6034V22.7849H154.321V18.2625C154.321 16.5963 153.401 15.6506 151.909 15.6506C150.854 15.6506 150.114 16.1202 149.773 16.9051H149.664V13.0452H148.293V22.7849Z" fill="black"/>
<path d="M159.311 16.8214C160.334 16.8214 161.003 17.5355 161.035 18.6356H157.497C157.574 17.5419 158.288 16.8214 159.311 16.8214ZM161.028 20.8936C160.771 21.4404 160.199 21.7428 159.362 21.7428C158.256 21.7428 157.542 20.9644 157.497 19.7356V19.6584H162.444V19.176C162.444 16.9758 161.266 15.6442 159.317 15.6442C157.342 15.6442 156.088 17.0659 156.088 19.3046C156.088 21.5433 157.317 22.92 159.324 22.92C160.926 22.92 162.045 22.148 162.36 20.8936H161.028Z" fill="black"/>
<path d="M38.392 31.4663C38.4255 28.8607 39.8248 26.3953 42.0446 25.0306C40.6442 23.0306 38.2987 21.7625 35.8583 21.6862C33.2555 21.413 30.7322 23.2437 29.4058 23.2437C28.0538 23.2437 26.0117 21.7133 23.8126 21.7585C20.9463 21.8511 18.2742 23.4808 16.8796 25.9867C13.8819 31.1768 16.1179 38.8044 18.9895 42.9997C20.4262 45.0539 22.1053 47.3486 24.3023 47.2673C26.4523 47.1781 27.2552 45.8963 29.8504 45.8963C32.4215 45.8963 33.1748 47.2673 35.4164 47.2155C37.7234 47.1781 39.1769 45.1521 40.5632 43.0784C41.5955 41.6146 42.3898 39.9968 42.9168 38.285C40.2056 37.1383 38.3951 34.4099 38.392 31.4663Z" fill="black"/>
<path d="M34.1579 18.9272C35.4157 17.4171 36.0354 15.4763 35.8854 13.5167C33.9636 13.7186 32.1885 14.637 30.9136 16.0891C29.667 17.5079 29.0182 19.4146 29.1409 21.2993C31.0633 21.3191 32.9532 20.4255 34.1579 18.9272Z" fill="black"/>
<rect x="0.5" y="0.5" width="185" height="61" rx="6.5" stroke="black"/>
</svg>
